<svg xmlns="http://www.w3.org/2000/svg" width="83.525" height="42.848" viewBox="0 0 83.525 42.848"><defs><style>.a{fill:#fff;}</style></defs><g transform="translate(5383.425 2736.189)"><g transform="translate(-5383.425 -2736.189)"><path class="a" d="M-5234.741-2336.747a3.476,3.476,0,0,1-.248,1.3,3,3,0,0,1-.7,1.053,3.588,3.588,0,0,1-1.039.7,3.069,3.069,0,0,1-1.271.264,3.473,3.473,0,0,1-1.348-.264,3.607,3.607,0,0,1-1.1-.7,3.22,3.22,0,0,1-.744-1.053,3.135,3.135,0,0,1-.279-1.3v-10.01a14.925,14.925,0,0,1,1.225-6.012,15.767,15.767,0,0,1,3.332-4.928,15.79,15.79,0,0,1,4.927-3.332,14.863,14.863,0,0,1,5.981-1.224h.062a3.435,3.435,0,0,1,2.588.945,3.315,3.315,0,0,1,.915,2.4,3.206,3.206,0,0,1-.279,1.333,3.3,3.3,0,0,1-.759,1.069,3.679,3.679,0,0,1-1.116.713,3.484,3.484,0,0,1-1.349.263H-5226a8.475,8.475,0,0,0-3.362.682,8.726,8.726,0,0,0-2.774,1.86,9.212,9.212,0,0,0-1.891,2.758,8.124,8.124,0,0,0-.713,3.378Z" transform="translate(5241.466 2375.907)"/><path class="a" d="M-4919.463-2517.591a14.371,14.371,0,0,1-1.208,5.687,15,15,0,0,1-3.177,4.664,15.106,15.106,0,0,1-4.68,3.146,14.224,14.224,0,0,1-5.718,1.162,14.3,14.3,0,0,1-5.749-1.162,14.839,14.839,0,0,1-4.68-3.177,15.1,15.1,0,0,1-3.161-4.711,14.335,14.335,0,0,1-1.162-5.733,14.413,14.413,0,0,1,1.162-5.764,14.925,14.925,0,0,1,3.161-4.7,14.966,14.966,0,0,1,4.68-3.161,14.3,14.3,0,0,1,5.749-1.162,14.193,14.193,0,0,1,4.262.635,15.392,15.392,0,0,1,3.8,1.782v-9.669a3.756,3.756,0,0,1,.248-1.379,3.473,3.473,0,0,1,.7-1.116,3.164,3.164,0,0,1,1.054-.744,3.346,3.346,0,0,1,1.349-.264,3.376,3.376,0,0,1,1.332.264,3.121,3.121,0,0,1,1.069.744,3.7,3.7,0,0,1,.713,1.116,3.571,3.571,0,0,1,.264,1.379Zm-6.726-.124a7.856,7.856,0,0,0-.635-3.146,8.017,8.017,0,0,0-1.735-2.557,8.386,8.386,0,0,0-2.557-1.72,7.75,7.75,0,0,0-3.13-.635,7.75,7.75,0,0,0-3.13.635,8.363,8.363,0,0,0-2.557,1.72,7.8,7.8,0,0,0-1.72,2.557,8.015,8.015,0,0,0-.62,3.146,7.937,7.937,0,0,0,.62,3.115,8.091,8.091,0,0,0,1.7,2.572,7.987,7.987,0,0,0,2.557,1.736,7.853,7.853,0,0,0,3.146.635,7.742,7.742,0,0,0,3.13-.635,8.23,8.23,0,0,0,2.557-1.736,8.191,8.191,0,0,0,1.735-2.572A7.779,7.779,0,0,0-4926.188-2517.715Z" transform="translate(4966.976 2545.78)"/><path class="a" d="M-4443.091-2366.661q-1.334-.558-2.758-1.24a12.507,12.507,0,0,1-2.6-1.658,8.247,8.247,0,0,1-1.937-2.324,6.5,6.5,0,0,1-.759-3.239,8.019,8.019,0,0,1,.775-3.549,8.02,8.02,0,0,1,2.153-2.727,9.8,9.8,0,0,1,3.27-1.736,13.582,13.582,0,0,1,4.153-.6,18.86,18.86,0,0,1,2.7.2,13.647,13.647,0,0,1,2.65.651,8.77,8.77,0,0,1,2.247,1.177,5,5,0,0,1,1.519,1.751,3.419,3.419,0,0,1,.326,1.968,2.943,2.943,0,0,1-.7,1.6,3.18,3.18,0,0,1-1.007.775,2.762,2.762,0,0,1-1.224.279,2.811,2.811,0,0,1-1.084-.248q-.651-.4-1.193-.713a7.84,7.84,0,0,0-1.116-.527,6.553,6.553,0,0,0-1.208-.326,8.686,8.686,0,0,0-1.441-.108,6.783,6.783,0,0,0-3.053.542,1.763,1.763,0,0,0-1.038,1.658,1.322,1.322,0,0,0,.388.977,3.638,3.638,0,0,0,1.054.7,11.731,11.731,0,0,0,1.611.589q.945.279,2.061.62a29.638,29.638,0,0,1,3.487,1.3,12.076,12.076,0,0,1,2.913,1.813,8.228,8.228,0,0,1,2,2.51,7.45,7.45,0,0,1,.744,3.456,7.877,7.877,0,0,1-.79,3.487,8.824,8.824,0,0,1-2.185,2.836,10.443,10.443,0,0,1-3.316,1.906,12.274,12.274,0,0,1-4.215.7,18.613,18.613,0,0,1-3.021-.263,13.628,13.628,0,0,1-3.1-.9,11.893,11.893,0,0,1-2.773-1.643,7.638,7.638,0,0,1-2.045-2.5,4.02,4.02,0,0,1-.558-1.906,3.02,3.02,0,0,1,.388-1.549,2.687,2.687,0,0,1,1.085-1.039,3.205,3.205,0,0,1,1.534-.372,4.123,4.123,0,0,1,1.549.326,5.673,5.673,0,0,1,1.612,1.038,5.108,5.108,0,0,0,.93.883,7.284,7.284,0,0,0,1.24.744,7.264,7.264,0,0,0,1.472.511,7.2,7.2,0,0,0,1.658.186,5.977,5.977,0,0,0,1.457-.17,4.528,4.528,0,0,0,1.208-.48,2.664,2.664,0,0,0,.837-.744,1.666,1.666,0,0,0,.31-.992,1.534,1.534,0,0,0-.682-1.193,8.635,8.635,0,0,0-1.658-1.007,18.073,18.073,0,0,0-2.046-.821Z" transform="translate(4500.689 2396.071)"/><g transform="translate(65.611 0)"><path class="a" d="M-4156.209-2525.335l-6.851,9.373-4.267,5.834.021-7.216-6.782-2.2,6.793-2.208,10.321-3.355Z" transform="translate(4174.087 2528.965)"/><path class="a" d="M-4156.209-2525.335l-6.851,9.373-4.267,5.834.021-7.216-6.782-2.2,6.793-2.208,10.321-3.355Z" transform="translate(4174.087 2528.965)"/><path class="a" d="M-4156.209-2525.335l-6.851,9.373-4.267,5.834.021-7.216-6.782-2.2,6.793-2.208,10.321-3.355Z" transform="translate(4174.087 2528.965)"/><path class="a" d="M-3971.239-2413.274l-5.8-1.885,2.3-3.145Z" transform="translate(3989.152 2428.513)"/><path class="a" d="M-4059.837-2579.514l-3.687,1.2.018-6.069Z" transform="translate(4070.321 2584.385)"/></g></g></g></svg>