<svg xmlns="http://www.w3.org/2000/svg" width="772.203" height="746.149" viewBox="0 0 772.203 746.149">
  <g id="Group_7052" data-name="Group 7052" transform="matrix(0.839, 0.545, -0.545, 0.839, 2433.489, 4339.821)" opacity="1" style="mix-blend-mode: multiply;isolation: isolate">
    <path id="Path_2436" data-name="Path 2436" d="M-3580.972-2525.334l-227.281,310.965-141.555,193.543.721-239.407-225-73,225.36-73.24,342.422-111.3Z" transform="translate(0 61.374)" fill="#3d9b3d"/>
    <path id="Path_2437" data-name="Path 2437" d="M-3580.972-2525.334l-227.281,310.965-141.555,193.543.721-239.407-225-73,225.36-73.24,342.422-111.3Z" transform="translate(0 61.374)" fill="#3d9b3d"/>
    <path id="Path_2438" data-name="Path 2438" d="M-3580.972-2525.334l-227.281,310.965-141.555,193.543.721-239.407-225-73,225.36-73.24,342.422-111.3Z" transform="translate(0 61.374)" fill="#3d9b3d"/>
    <path id="Path_2439" data-name="Path 2439" d="M-3784.577-2251.416l-192.463-62.553,76.359-104.336Z" transform="translate(204.806 172.62)" fill="#3d9b3d"/>
    <path id="Path_2440" data-name="Path 2440" d="M-3941.177-2422.778l-122.347,39.741.6-201.347Z" transform="translate(114.915 0)" fill="#3d9b3d"/>
  </g>
</svg>
