<svg xmlns="http://www.w3.org/2000/svg" width="1920" height="1350.805" viewBox="0 0 1920 1350.805">
  <path id="Subtraction_10" data-name="Subtraction 10" d="M1920,3170.538H0v-1129H371.933c32.478-.81,64.262-2.386,94.467-4.684,28.9-2.2,57.122-5.114,83.877-8.667,25.526-3.39,50.392-7.448,73.908-12.06,22.352-4.384,44.072-9.384,64.557-14.86,70.884-18.949,130.484-44.391,177.143-75.621a330.7,330.7,0,0,0,48.6-39.241,231.98,231.98,0,0,0,28.571-33.886,153.06,153.06,0,0,0,13.5-23.8,69.924,69.924,0,0,0,3.4-8.968l0-.007a.065.065,0,0,0,0-.008,66.879,66.879,0,0,0,3.4,8.983,153.055,153.055,0,0,0,13.5,23.8,232.175,232.175,0,0,0,28.574,33.886,330.764,330.764,0,0,0,48.607,39.241c46.664,31.23,106.27,56.673,177.164,75.621,20.49,5.477,42.214,10.476,64.566,14.86,23.52,4.612,48.389,8.67,73.917,12.06,26.76,3.553,54.984,6.469,83.889,8.667,30.21,2.3,62,3.874,94.48,4.684H1920v1129Z" transform="translate(0 -1819.733)" fill="#3d9b3d"/>
</svg>
