<svg xmlns="http://www.w3.org/2000/svg" width="480.543" height="542.597" viewBox="0 0 480.543 542.597"><defs><style>.a{fill:rgba(72,134,53,0.55);}.b{fill:#e0e0e0;}.c{fill:#e8505b;}.d{opacity:0.8;}.e{fill:#fff;}.f{opacity:0.3;}.g{fill:#ffbe9d;}.h{fill:#eb996e;}.i{opacity:0.6;}.j{fill:#263238;}.k{fill:#455a64;}.l{fill:#fafafa;}</style></defs><g transform="translate(-35.305 -16.251)"><g transform="translate(35.305 16.252)"><g transform="translate(21.503 301.148)"><path class="a" d="M136.157,372.606c-2.31-2.441-5.744-3.365-8.9-4.527a47.758,47.758,0,0,1-21.882-73.231l-.476-2.456c-1.079-11.421-14.873-19.609-25.416-15.088S65.365,297.462,72.9,306.117c-12.373,1.022-20.549,15.123-18.807,27.417s10.739,22.381,20.755,29.719A98.243,98.243,0,0,0,131.891,382.1a7.9,7.9,0,0,0,4.049-.73C138.846,379.678,138.467,375.047,136.157,372.606Z" transform="translate(-53.855 -276.038)"/></g><g transform="translate(406.701 312.096)"><path class="a" d="M427.941,321.1c2.842-4.614,3.243-10.837.358-15.423s-9.22-6.909-14.142-4.643a10.355,10.355,0,0,0-17.576-10.95c-3.294,5.089-1.552,11.914,1.279,17.276s6.707,10.395,7.64,16.383c.953,6.118-1.395,12.382-5.054,17.377s-8.547,8.931-13.376,12.806l-.922.887a33.244,33.244,0,0,0,26.609-2.287c4.545-2.514,8.753-6.675,9.051-11.86.166-2.9-.913-5.8-.474-8.665C421.983,327.758,425.689,324.756,427.941,321.1Z" transform="translate(-386.148 -285.482)"/></g><g transform="translate(120.498 500.187)"><path class="a" d="M217.96,484.781c-4.507-.56-9.035-2.535-11.686-6.221-1.7-2.36-2.513-5.237-3.99-7.741s-4.033-4.768-6.926-4.485c-4.48.436-7.5,6.63-11.869,5.539-2.624-.655-3.873-3.74-3.893-6.445s.772-5.4.436-8.087c-.945-7.544-10.635-11.254-17.862-8.895s-18.207,11.077-22.916,17.045c4.952,8.237,15.123,11.439,24.447,13.776q23.478,5.888,47.356,9.985c3.729.64,7.541,1.247,11.278.661s7.454-2.573,9.18-5.941C227.024,484.656,222.466,485.34,217.96,484.781Z" transform="translate(-139.253 -447.741)"/></g><g transform="translate(293.886 436.992)"><path class="a" d="M373.614,435.328c-1.149-6.444-7.578-12.121-13.952-10.636,5.287-4.357,5.318-13.121,1.138-18.552s-11.443-7.772-18.292-7.568-13.424,2.612-19.783,5.163c3.117-3.971-1.444-10.154-6.482-10.486s-9.538,2.875-13.623,5.84-8.8,5.983-13.792,5.2l4.689,1.87c11.184,1.694,22.461,4.309,32.145,10.152s17.658,15.368,19.332,26.554-4.216,23.709-14.829,27.622a45.013,45.013,0,0,0,37.664-17C371.846,448.321,374.764,441.772,373.614,435.328Z" transform="translate(-288.827 -393.224)"/></g><g transform="translate(0 290.352)"><g transform="translate(10.861)"><path class="b" d="M44.975,288.319c-.166,0-.3-4.835-.3-10.8s.136-10.8.3-10.8.3,4.833.3,10.8S45.142,288.319,44.975,288.319Z" transform="translate(-44.674 -266.725)"/></g><g transform="translate(0 10.494)"><path class="b" d="M57.629,276.081c0,.166-5,.3-11.161.3s-11.163-.136-11.163-.3,5-.3,11.163-.3S57.629,275.914,57.629,276.081Z" transform="translate(-35.305 -275.778)"/></g></g><g transform="translate(430.628 401.33)"><g transform="translate(10.86)"><path class="b" d="M416.457,384.055c-.166,0-.3-4.835-.3-10.8s.136-10.8.3-10.8.3,4.833.3,10.8S416.624,384.055,416.457,384.055Z" transform="translate(-416.156 -362.461)"/></g><g transform="translate(0 10.494)"><path class="b" d="M429.111,371.817c0,.166-5,.3-11.161.3s-11.162-.136-11.162-.3,5-.3,11.162-.3S429.111,371.65,429.111,371.817Z" transform="translate(-406.788 -371.514)"/></g></g><g transform="translate(365.122 30.798)"><g transform="translate(10.861)"><path class="b" d="M359.949,64.413c-.167,0-.3-4.834-.3-10.8s.134-10.8.3-10.8.3,4.833.3,10.8S360.116,64.413,359.949,64.413Z" transform="translate(-359.648 -42.82)"/></g><g transform="translate(0 10.494)"><path class="b" d="M372.6,52.174c0,.167-5,.3-11.161.3s-11.163-.136-11.163-.3,5-.3,11.163-.3S372.6,52.009,372.6,52.174Z" transform="translate(-350.279 -51.873)"/></g></g><g transform="translate(16.983 203.911)"><g transform="translate(0 0)"><circle class="a" cx="6.598" cy="6.598" r="6.598"/></g></g><g transform="translate(273.652 484.898)"><path class="a" d="M284.567,441.148a6.6,6.6,0,1,1-6.6-6.6A6.6,6.6,0,0,1,284.567,441.148Z" transform="translate(-271.372 -434.551)"/></g><g transform="translate(335.047 360.209)"><path class="a" d="M337.531,333.586a6.6,6.6,0,1,1-6.6-6.6A6.6,6.6,0,0,1,337.531,333.586Z" transform="translate(-324.335 -326.988)"/></g><g transform="translate(139.017 31.664)"><path class="a" d="M168.424,50.165a6.6,6.6,0,1,1-6.6-6.6A6.6,6.6,0,0,1,168.424,50.165Z" transform="translate(-155.229 -43.567)"/></g><g transform="translate(176.874 425.284)"><circle class="a" cx="3.299" cy="3.299" r="3.299"/></g><g transform="translate(97.273 408.828)"><path class="a" d="M125.816,372.228a3.3,3.3,0,1,1-3.3-3.3A3.3,3.3,0,0,1,125.816,372.228Z" transform="translate(-119.218 -368.929)"/></g><g transform="translate(178.599 41.562)"><path class="a" d="M195.972,55.4a3.3,3.3,0,1,1-3.3-3.3A3.3,3.3,0,0,1,195.972,55.4Z" transform="translate(-189.374 -52.105)"/></g><g transform="translate(323.921 220.063)"><path class="b" d="M321.335,209.389a3.3,3.3,0,1,1-3.3-3.3A3.3,3.3,0,0,1,321.335,209.389Z" transform="translate(-314.737 -206.09)"/></g><g transform="translate(11.162 34.137)"><path class="a" d="M47.475,46.63s-7.347,3.793,2.947,19.183S67.463,88.625,67.463,88.625s1.931,3.626-1.2,4.6S55.953,93.9,54.99,97.984c-1,4.237,2.405,7.72,8.786,10.374s20.144,8.98,21.386,9.557c1.219.567,2.569,2.2.541,3.2s-17.681,4.531-15.562,11.86,21.107,11.8,23.173,12.331,2.638,1.31,2.606,2.413-5.407,1.794-9.819,2.98-9.319,3.335-7.742,7.461,13.417,11.786,39.9,11.255l12.258-1.05,5.424-11.1c10.16-24.466,7.351-38.284,4.085-41.259s-7.057.811-9.771,4.485-5.318,8.426-6.358,8.054-1.559-1.189-1.3-3.306,3.028-21.427-3.022-26.075-15.049,8.641-16.722,10.162-2.7-.332-2.784-1.674c-.083-1.368-.951-16.491-1.093-23.4S96.838,72.9,92.529,72.289c-4.155-.595-6.5,6.2-8.549,8.757s-4.717-.561-4.717-.561-4.448-8.992-15.02-24.192-16.912-9.576-16.912-9.576" transform="translate(-44.934 -45.7)"/><g transform="translate(11.734 14.728)"><path class="a" d="M129.88,169.141c-7.719-11.192-21.106-31.317-32.689-48.535S75.115,87.819,67.454,76.587c-3.831-5.6-6.933-10.14-9.088-13.292L55.9,59.68c-.271-.406-.482-.72-.634-.946s-.205-.329-.205-.329.086.1.238.307l.665.924c.587.831,1.437,2.033,2.527,3.575,2.192,3.107,5.331,7.625,9.189,13.224C75.4,87.629,85.93,103.18,97.508,120.393s24.932,37.365,32.595,48.6" transform="translate(-55.057 -58.405)"/></g><g transform="translate(20.085 53.089)"><path class="a" d="M62.261,91.5a3.932,3.932,0,0,1,.879.136c.562.11,1.369.293,2.364.527,1.988.474,4.718,1.2,7.716,2.052l7.667,2.213,2.325.656a4.038,4.038,0,0,1,.846.275,4.022,4.022,0,0,1-.881-.13c-.561-.111-1.368-.294-2.361-.539-1.983-.494-4.7-1.253-7.7-2.107l-7.679-2.157L63.1,91.784A3.976,3.976,0,0,1,62.261,91.5Z" transform="translate(-62.261 -91.497)"/></g><g transform="translate(42.618 32.731)"><path class="a" d="M81.7,99.279c-.1-.023,1.143-5.717,2.782-12.715s3.05-12.653,3.153-12.628S86.5,79.651,84.859,86.652,81.808,99.3,81.7,99.279Z" transform="translate(-81.699 -73.935)"/></g><g transform="translate(59.214 64.812)"><path class="a" d="M96.017,122.112a4.22,4.22,0,0,1,.407-.813l1.213-2.15c1.021-1.816,2.42-4.331,3.862-7.163s2.671-5.434,3.54-7.329l1.033-2.242a4.118,4.118,0,0,1,.42-.806,4.19,4.19,0,0,1-.283.864c-.205.546-.516,1.332-.922,2.293-.808,1.924-2,4.557-3.449,7.393s-2.886,5.342-3.969,7.126c-.545.89-.993,1.605-1.318,2.091A4.113,4.113,0,0,1,96.017,122.112Z" transform="translate(-96.015 -101.61)"/></g><g transform="translate(37.837 84.939)"><path class="a" d="M77.575,119.331a3.5,3.5,0,0,1,.836-.085l2.281-.088c1.925-.058,4.587-.111,7.527-.146s5.6-.046,7.529-.035l2.282.034a3.554,3.554,0,0,1,.838.064,3.514,3.514,0,0,1-.836.085l-2.281.088c-1.925.058-4.587.111-7.528.146s-5.6.046-7.529.035l-2.281-.034A3.634,3.634,0,0,1,77.575,119.331Z" transform="translate(-77.575 -118.973)"/></g><g transform="translate(49.43 110.566)"><path class="a" d="M87.575,141.719a5.83,5.83,0,0,1,1.071-.1l2.922-.124c2.468-.087,5.878-.182,9.646-.263s7.18-.133,9.649-.152l2.925,0a5.815,5.815,0,0,1,1.075.051,5.843,5.843,0,0,1-1.071.1l-2.922.124c-2.468.087-5.878.182-9.647.263s-7.179.133-9.648.152l-2.926,0A5.662,5.662,0,0,1,87.575,141.719Z" transform="translate(-87.575 -141.08)"/></g><g transform="translate(76.058 84.076)"><path class="a" d="M110.548,144.6a6.749,6.749,0,0,1,.489-1.042c.371-.718.855-1.653,1.44-2.781,1.211-2.351,2.874-5.6,4.607-9.245s3.226-6.976,4.286-9.4l1.258-2.869a6.7,6.7,0,0,1,.5-1.036,6.665,6.665,0,0,1-.364,1.093c-.257.693-.646,1.691-1.146,2.917-1,2.452-2.448,5.812-4.191,9.458s-3.438,6.887-4.713,9.206c-.64,1.158-1.167,2.091-1.546,2.726A6.427,6.427,0,0,1,110.548,144.6Z" transform="translate(-110.546 -118.228)"/></g></g><g transform="translate(398.828 163.745)"><g transform="translate(0 0)"><path class="a" d="M392.274,249.638c-13.069-11.4-14.3-30.069-11.965-46.483.389-2.739.4-5.671,1.968-7.943s4.8-3.591,7.135-2.168c1.939,1.181,2.573,3.653,3.5,5.74a16.172,16.172,0,0,0,5.786,6.856c1.653,1.1,3.759,1.886,5.591,1.12,2.513-1.054,3.146-4.3,3.423-7.038q.775-7.653,1.553-15.3a25.635,25.635,0,0,1,1.7-8.035c1.13-2.5,3.27-4.712,5.95-5.161s5.736,1.4,6,4.135a25.361,25.361,0,0,1-.289,3.414,2.893,2.893,0,0,0,1.391,2.889c1.057.439,2.235-.219,3.139-.931,3.121-2.458,5.419-5.809,7.591-9.153s4.3-6.779,7.186-9.516,6.686-4.74,10.626-4.541,7.854,3.068,8.43,7.02-2.095,7.632-4.879,10.49A61.444,61.444,0,0,1,442.1,185.778a5.044,5.044,0,0,0-2.373,2.056c-.791,1.76.742,3.757,2.477,4.55,1.966.9,4.2.925,6.306,1.406s4.315,1.67,4.9,3.773c.82,2.917-1.834,5.594-4.341,7.266a52.591,52.591,0,0,1-16.441,7.266c-2.091.519-4.279.938-6.053,2.176s-3.019,3.591-2.247,5.623,3.223,2.922,5.373,2.758,4.158-1.1,6.248-1.645c3.911-1.014,8.737-.232,10.795,3.276a8.7,8.7,0,0,1,.1,7.753,20.07,20.07,0,0,1-4.876,6.313,52.9,52.9,0,0,1-24.156,13.361c-9.044,2.083-17.212,2.031-25.535-2.073" transform="translate(-379.356 -157.507)"/></g><g transform="translate(18.285 2.856)"><path class="b" d="M395.129,239.377A246.169,246.169,0,0,1,407.7,214.04l3.636-6.472c1.2-2.123,2.387-4.227,3.676-6.212a122.845,122.845,0,0,1,8.063-10.987c2.735-3.371,5.452-6.47,8.012-9.349s5.015-5.51,7.346-7.815a97.622,97.622,0,0,1,11.8-10.053c1.48-1.075,2.656-1.87,3.46-2.4l.918-.6a2.134,2.134,0,0,1,.322-.188,1.858,1.858,0,0,1-.293.232l-.89.636c-.785.556-1.942,1.377-3.4,2.473a103.347,103.347,0,0,0-11.662,10.15c-2.309,2.316-4.733,4.958-7.283,7.841s-5.249,5.994-7.966,9.364a124.5,124.5,0,0,0-8.008,10.962c-1.279,1.978-2.455,4.064-3.655,6.191l-3.632,6.47a252.412,252.412,0,0,0-12.584,25.27" transform="translate(-395.129 -159.971)"/></g><g transform="translate(37.544 13.717)"><path class="b" d="M412.514,199.861a5.612,5.612,0,0,1-.141-1.2c-.063-.771-.115-1.889-.161-3.272-.093-2.765-.092-6.588-.073-10.8s-.035-8.029-.17-10.784c-.064-1.378-.126-2.493-.18-3.263a5.494,5.494,0,0,1-.024-1.2,5.454,5.454,0,0,1,.22,1.184c.114.765.231,1.879.34,3.259.228,2.76.337,6.588.32,10.807-.029,4.159-.054,7.922-.074,10.8,0,1.3,0,2.394,0,3.272A5.417,5.417,0,0,1,412.514,199.861Z" transform="translate(-411.743 -169.34)"/></g><g transform="translate(38.315 41.043)"><path class="b" d="M448.28,193.326a7.6,7.6,0,0,1-1.42.016c-.911-.016-2.229-.049-3.858-.035-3.259,0-7.76.159-12.717.551s-9.431.955-12.654,1.449c-1.615.235-2.914.461-3.815.612a7.688,7.688,0,0,1-1.408.189,7.511,7.511,0,0,1,1.371-.385c.89-.211,2.184-.492,3.8-.774,3.218-.587,7.7-1.2,12.673-1.6a124.9,124.9,0,0,1,12.759-.4c1.633.032,2.954.119,3.865.2A7.43,7.43,0,0,1,448.28,193.326Z" transform="translate(-412.408 -192.913)"/></g><g transform="translate(5.918 34.842)"><path class="b" d="M397.329,234.383a1.752,1.752,0,0,1-.195-.454c-.126-.362-.279-.8-.465-1.338-.4-1.163-.93-2.86-1.559-4.966-1.262-4.211-2.824-10.083-4.458-16.585s-3.139-12.384-4.312-16.616l-1.4-5.008c-.151-.546-.274-1-.374-1.366a1.893,1.893,0,0,1-.1-.487,1.853,1.853,0,0,1,.2.457l.464,1.335c.4,1.163.93,2.861,1.56,4.966,1.262,4.211,2.823,10.084,4.457,16.588s3.139,12.382,4.312,16.614c.577,2.056,1.05,3.75,1.4,5.007.15.546.272,1,.373,1.366A1.846,1.846,0,0,1,397.329,234.383Z" transform="translate(-384.461 -187.564)"/></g><g transform="translate(18.787 71.631)"><path class="b" d="M443.912,219.307a1.948,1.948,0,0,1-.485.141l-1.406.308c-1.3.271-3.048.638-5.178,1.082-4.373.916-10.4,2.248-17.052,3.73s-12.7,2.761-17.093,3.585c-2.2.413-3.976.729-5.211.923-.571.086-1.041.155-1.424.214a1.864,1.864,0,0,1-.5.039,1.95,1.95,0,0,1,.485-.143l1.4-.307,5.178-1.083c4.373-.913,10.4-2.248,17.054-3.729s12.7-2.761,17.09-3.585c2.2-.414,3.976-.729,5.212-.923l1.424-.214A1.861,1.861,0,0,1,443.912,219.307Z" transform="translate(-395.562 -219.3)"/></g></g><g transform="translate(311.042)"><path class="a" d="M303.627,76.271c2.106-12.076,7.861-29.726,14.757-39.858s17.527-18.187,29.669-19.87,25.535,4.012,31,14.982c2.932,5.88,3.471,12.645,5.609,18.858s6.824,12.422,13.375,12.923c5.8.444,11.388-3.736,17.1-2.624,7.433,1.447,10.3,10.609,10.345,18.181s-1.037,15.98,3.617,21.953c3.808,4.888,10.331,6.573,15.588,9.851,11.37,7.091,16.237,21.74,15.085,35.09s-7.3,25.712-13.832,37.412a292.413,292.413,0,0,0-22.084-55.51c-5.273-10.1-14.9-18.7-23.42-26.268-13.084-11.619-41.808-17.163-59.175-19.3s-20.437-2.6-37.636-5.822" transform="translate(-303.627 -16.252)"/></g></g><g transform="translate(106.226 88.648)"><g transform="translate(0 1.847)"><path class="c" d="M220.787,80.3c-42.98,3.123-89.9,8.811-124.3,22.02l10.864,73.524s66.687-23.865,120.942-22.207Z" transform="translate(-96.485 -80.298)"/><g class="d"><path class="e" d="M220.787,80.3c-42.98,3.123-89.9,8.811-124.3,22.02l10.864,73.524s66.687-23.865,120.942-22.207Z" transform="translate(-96.485 -80.298)"/></g><g transform="translate(10.6 26.095)"><path class="c" d="M216.232,140.352a2.225,2.225,0,0,1-.413.078l-1.22.167-4.69.587c-2.039.24-4.531.539-7.415.963s-6.18.827-9.8,1.428c-14.5,2.241-34.458,5.942-56.137,11.549-7.537,1.944-14.8,3.952-21.447,6.035l-.33.1-.048-.341c-2.322-16.86-4.571-31.394-6.3-41.7l-2.075-12.067c-.242-1.378-.431-2.456-.566-3.224-.056-.345-.1-.62-.134-.835a1.241,1.241,0,0,1-.029-.286,1.245,1.245,0,0,1,.079.276c.048.213.108.485.184.825.157.764.377,1.836.658,3.208.56,2.8,1.333,6.893,2.243,12.041,1.826,10.295,4.151,24.825,6.51,41.685l-.377-.236c6.667-2.106,13.928-4.12,21.476-6.067a547.04,547.04,0,0,1,56.224-11.387c3.627-.575,6.927-.958,9.82-1.34s5.389-.658,7.433-.862l4.7-.474,1.225-.108A2.161,2.161,0,0,1,216.232,140.352Z" transform="translate(-105.63 -102.809)"/></g><g transform="translate(15.181 33.223)"><path class="c" d="M217.06,121.5c-.03.008-.162-.511-.495-1.463a15.581,15.581,0,0,0-2.212-3.8,19.326,19.326,0,0,0-5.218-4.568,20.143,20.143,0,0,0-1.857-.989,17.338,17.338,0,0,0-2.1-.759,11.551,11.551,0,0,0-4.781-.465,10.056,10.056,0,0,0-4.87,1.916,16.319,16.319,0,0,0-3.894,4.232c-2.26,3.347-3.731,7.425-5.462,11.661a14.627,14.627,0,0,1-4.043,5.8,7.672,7.672,0,0,1-3.356,1.607,6.7,6.7,0,0,1-3.776-.436c-4.9-1.941-7.074-7.579-12.019-9.292a9.682,9.682,0,0,0-7.34.6,9.245,9.245,0,0,0-2.907,2.245,14.73,14.73,0,0,0-1.939,3.114c-1.1,2.177-1.934,4.6-3.8,6.307a5.635,5.635,0,0,1-3.334,1.5,6.518,6.518,0,0,1-3.489-.749,12.51,12.51,0,0,1-4.8-4.717,40.725,40.725,0,0,1-2.54-5.789,27.641,27.641,0,0,0-2.514-5.233,10.476,10.476,0,0,0-3.845-3.567,9.947,9.947,0,0,0-8.812-.256,14.925,14.925,0,0,0-5.594,4.033,10.864,10.864,0,0,0-2.1,3.835c-.3.966-.337,1.5-.38,1.5a6.821,6.821,0,0,1,.263-1.529,10.57,10.57,0,0,1,2.034-3.952,14.983,14.983,0,0,1,5.641-4.193,10.292,10.292,0,0,1,9.145.188,10.9,10.9,0,0,1,4.034,3.685,27.963,27.963,0,0,1,2.593,5.309,40.759,40.759,0,0,0,2.528,5.7,12,12,0,0,0,4.6,4.494,5.969,5.969,0,0,0,3.187.682,5.062,5.062,0,0,0,3-1.367c1.714-1.559,2.551-3.927,3.658-6.141a15.232,15.232,0,0,1,2.018-3.242A9.831,9.831,0,0,1,155.368,125a10.281,10.281,0,0,1,7.8-.636c2.637.866,4.522,2.9,6.271,4.727a17.376,17.376,0,0,0,5.779,4.59,6.116,6.116,0,0,0,3.447.409,7.1,7.1,0,0,0,3.1-1.483,14.086,14.086,0,0,0,3.893-5.57c1.727-4.18,3.239-8.323,5.557-11.716a16.761,16.761,0,0,1,4.036-4.331,10.484,10.484,0,0,1,5.1-1.963,11.905,11.905,0,0,1,4.935.52,17.406,17.406,0,0,1,2.143.8,20.323,20.323,0,0,1,1.881,1.028,19.216,19.216,0,0,1,5.228,4.715,14.836,14.836,0,0,1,2.141,3.9c.17.48.234.868.3,1.119A1.959,1.959,0,0,1,217.06,121.5Z" transform="translate(-109.581 -108.958)"/></g><g transform="translate(6.155 35.974)"><path class="c" d="M104.409,111.469c.031.165-.529.408-1.25.546s-1.332.116-1.363-.048.529-.408,1.25-.546S104.378,111.305,104.409,111.469Z" transform="translate(-101.795 -111.331)"/></g><g transform="translate(8.524 49.471)"><path class="c" d="M105.984,123.045c.07.151-.351.5-.941.771s-1.126.376-1.2.224.351-.5.941-.771S105.913,122.894,105.984,123.045Z" transform="translate(-103.838 -122.974)"/></g><g transform="translate(10.901 64.117)"><path class="c" d="M108.031,135.705c.054.158-.379.452-.969.658s-1.113.246-1.168.088.379-.452.969-.658S107.977,135.548,108.031,135.705Z" transform="translate(-105.889 -135.609)"/></g><g transform="translate(13.515 78.539)"><path class="c" d="M110.522,148.148c.05.159-.44.454-1.1.661s-1.228.245-1.277.085.44-.454,1.1-.661S110.472,147.99,110.522,148.148Z" transform="translate(-108.144 -148.05)"/></g><g transform="translate(96.934 6.545)"><path class="c" d="M180.114,88.741a5.876,5.876,0,0,1,1.4-.316c.923-.16,2.277-.362,4-.6,3.443-.485,8.353-1.122,14.211-1.843l.274-.034.025.276c.456,4.936.982,10.62,1.538,16.645l.023.25.027.292-.29.035L182.11,105.8l-.257.031-.027-.254c-.539-5.039-.988-9.246-1.312-12.276-.136-1.406-.246-2.539-.328-3.388a7.881,7.881,0,0,1-.072-1.167,10.249,10.249,0,0,1,.21,1.238q.176,1.287.467,3.417c.38,2.992.908,7.143,1.541,12.117l-.284-.224,19.2-2.447-.263.327-.022-.25c-.533-6.028-1.035-11.714-1.472-16.652l.3.242Z" transform="translate(-180.106 -85.944)"/><g transform="translate(3.206 5.496)"><path class="c" d="M197.521,90.912c0,.179-3.307.177-7.341.612-4.038.418-7.266,1.108-7.308.934a25.977,25.977,0,0,1,7.244-1.535A25.934,25.934,0,0,1,197.521,90.912Z" transform="translate(-182.872 -90.685)"/></g><g transform="translate(4.356 9.862)"><path class="c" d="M197.569,94.621c0,.174-3.079.292-6.852.662s-6.821.833-6.853.662a26.613,26.613,0,0,1,6.794-1.262A26.617,26.617,0,0,1,197.569,94.621Z" transform="translate(-183.864 -94.451)"/></g><g transform="translate(5.564 13.712)"><path class="c" d="M192.8,97.855a13.36,13.36,0,0,1-3.91.8,13.378,13.378,0,0,1-3.987.2,13.424,13.424,0,0,1,3.91-.8A13.378,13.378,0,0,1,192.8,97.855Z" transform="translate(-184.906 -97.772)"/></g></g></g><g transform="translate(201.254)"><path class="c" d="M402.633,102.184c-42.081-12.824-77.581-23.775-125.249-23.473l-7.286,74.92c49.51,4.382,66.057,7.623,111.777,24.168Z" transform="translate(-270.098 -78.705)"/><g class="d"><path class="e" d="M402.633,102.184c-42.081-12.824-77.581-23.775-125.249-23.473l-7.286,74.92c49.51,4.382,66.057,7.623,111.777,24.168Z" transform="translate(-270.098 -78.705)"/></g><g transform="translate(18.169 20.355)"><path class="c" d="M304.872,112.27l1.857-15.9a18.637,18.637,0,0,0-12.977,3.589,19.542,19.542,0,0,0-7.975,15.718c-.015.765,0,1.548.066,2.351,0,.019,0,.037,0,.057h0L304.413,116Z" transform="translate(-285.772 -96.264)"/><g transform="translate(20.667 0.419)"><path class="c" d="M321.224,109.61A17.98,17.98,0,0,0,308,97.005c-.187-.043-.374-.085-.565-.123-.121-.024-.239-.052-.361-.074-.354-.065-.715-.121-1.082-.167l-.05-.008h0l-.045-.007v0h0l-1.857,15.9-.437,3.736,17.527,6.4.021.008h0a20.1,20.1,0,0,0,.908-4.069A21.811,21.811,0,0,0,321.224,109.61Z" transform="translate(-303.6 -96.626)"/></g><g class="f" transform="translate(20.667 0.419)"><path d="M321.224,109.61A17.98,17.98,0,0,0,308,97.005c-.187-.043-.374-.085-.565-.123-.121-.024-.239-.052-.361-.074-.354-.065-.715-.121-1.082-.167l-.05-.008h0l-.045-.007v0h0l-1.857,15.9-.437,3.736,17.527,6.4.021.008h0a20.1,20.1,0,0,0,.908-4.069A21.811,21.811,0,0,0,321.224,109.61Z" transform="translate(-303.6 -96.626)"/></g><g transform="translate(0.798 21.84)"><path class="c" d="M305.026,115.105l-18.566,2.087c.772,8.99,7.335,16.446,16.151,17.531,8.86,1.091,17.073-4.613,19.964-13.217l-17.526-6.4" transform="translate(-286.46 -115.105)"/></g></g><g transform="translate(73.335 25.492)"><path class="c" d="M376.3,112.964a9.89,9.89,0,0,1-1.638-.663c-1.034-.468-2.541-1.124-4.411-1.907a132.206,132.206,0,0,0-30.393-8.671c-2-.322-3.628-.56-4.753-.707a9.984,9.984,0,0,1-1.742-.3,9.913,9.913,0,0,1,1.767.067c1.136.077,2.774.249,4.791.519a112,112,0,0,1,30.5,8.7c1.855.835,3.339,1.552,4.342,2.087A9.908,9.908,0,0,1,376.3,112.964Z" transform="translate(-333.361 -100.695)"/></g><g transform="translate(72.06 33.312)"><path class="c" d="M375.2,119.71a9.92,9.92,0,0,1-1.639-.663c-1.034-.468-2.54-1.124-4.411-1.907a132.2,132.2,0,0,0-30.393-8.671c-2-.322-3.627-.56-4.753-.707a10.015,10.015,0,0,1-1.742-.3,9.926,9.926,0,0,1,1.768.067c1.135.077,2.773.249,4.79.519a111.961,111.961,0,0,1,30.5,8.7c1.856.835,3.339,1.552,4.344,2.087A9.979,9.979,0,0,1,375.2,119.71Z" transform="translate(-332.261 -107.441)"/></g><g transform="translate(70.786 41.132)"><path class="c" d="M374.1,126.456a9.92,9.92,0,0,1-1.639-.663c-1.034-.468-2.54-1.124-4.411-1.907a132.206,132.206,0,0,0-30.393-8.671c-2-.322-3.627-.56-4.753-.707a9.951,9.951,0,0,1-1.741-.3,9.914,9.914,0,0,1,1.767.067c1.136.077,2.773.249,4.791.519a111.971,111.971,0,0,1,30.5,8.7c1.856.835,3.339,1.552,4.344,2.087A9.9,9.9,0,0,1,374.1,126.456Z" transform="translate(-331.162 -114.187)"/></g><g transform="translate(69.511 48.952)"><path class="c" d="M371.725,133.2a9.438,9.438,0,0,1-1.588-.661c-1-.467-2.459-1.122-4.271-1.9a125.507,125.507,0,0,0-29.49-8.674c-1.946-.323-3.526-.561-4.621-.709a9.322,9.322,0,0,1-1.694-.3,9.344,9.344,0,0,1,1.719.068c1.1.077,2.7.249,4.659.52a106.243,106.243,0,0,1,29.6,8.707c1.8.835,3.231,1.55,4.2,2.082A9.406,9.406,0,0,1,371.725,133.2Z" transform="translate(-330.062 -120.933)"/></g><g transform="translate(68.236 56.768)"><path class="c" d="M366.359,138.369a7.6,7.6,0,0,1-1.433-.571c-1.014-.45-2.3-1.021-3.831-1.7a93.516,93.516,0,0,0-26.461-7.549l-4.152-.575a7.607,7.607,0,0,1-1.52-.271,7.566,7.566,0,0,1,1.543.038c.991.057,2.42.189,4.185.385a80.253,80.253,0,0,1,26.582,7.582c1.6.766,2.885,1.407,3.757,1.881A7.4,7.4,0,0,1,366.359,138.369Z" transform="translate(-328.962 -127.676)"/></g><g transform="translate(66.448 64.586)"><path class="c" d="M347.909,138.176a18.563,18.563,0,0,1-3-.62c-1.834-.427-4.374-.975-7.2-1.461s-5.409-.843-7.275-1.108a16.664,16.664,0,0,1-3.015-.523,14.435,14.435,0,0,1,3.063.1c1.883.158,4.484.442,7.33.938a65.448,65.448,0,0,1,7.209,1.643A13.224,13.224,0,0,1,347.909,138.176Z" transform="translate(-327.42 -134.42)"/></g><g transform="translate(7.68 8.712)"><path class="c" d="M283.633,86.392s.319-.025.967-.051l2.9-.1c2.56-.063,6.257-.022,10.99.246a174.988,174.988,0,0,1,38.6,6.909l.212.064-.039.226c-2.9,16.6-6.348,36.347-10.036,57.471-.151.855-.3,1.709-.446,2.547l-.057.323-.319-.083a254.362,254.362,0,0,0-25.775-5.317c-8.3-1.274-16.245-2.178-23.622-2.645l-.284-.017.032-.278c2.029-17.721,3.729-32.567,4.924-43.011.607-5.167,1.085-9.244,1.415-12.057.167-1.364.3-2.422.386-3.165.045-.338.08-.6.107-.8a1.553,1.553,0,0,1,.045-.261,2.341,2.341,0,0,1-.016.292c-.02.21-.044.483-.076.835q-.115,1.134-.326,3.219c-.3,2.83-.732,6.93-1.281,12.127-1.129,10.413-2.733,25.216-4.65,42.885l-.25-.3c7.412.449,15.358,1.335,23.685,2.6a251.491,251.491,0,0,1,25.841,5.31l-.374.239c.147-.838.3-1.691.446-2.547,3.721-21.119,7.2-40.855,10.123-57.456l.174.29a179.089,179.089,0,0,0-38.461-7.1c-4.709-.312-8.44-.4-10.942-.389l-2.879.006C283.989,86.405,283.633,86.392,283.633,86.392Z" transform="translate(-276.723 -86.22)"/></g></g></g><g transform="translate(134.701 57.846)"><g transform="translate(139.907 175.389)"><path class="c" d="M243.25,220.832l41.035,9.086,6.271-9.086-1.013-11.7-6.236-5.7h-21.5l-20.071,18.075" transform="translate(-241.741 -203.434)"/></g><g class="f" transform="translate(139.907 175.389)"><path d="M243.25,220.832l41.035,9.086,6.271-9.086-1.013-11.7-6.236-5.7h-21.5l-20.071,18.075" transform="translate(-241.741 -203.434)"/></g><g transform="translate(193.103 93.994)"><path class="g" d="M298.52,147.5l51.8-6.976,8.154-2.3s18.669-4.1,20.413-4.723c2.015-.72,2.846.079,3.06.839.334,1.185-.8,2.512-2.51,3.183-.591.232-10.062,3.512-10.062,3.512a23.444,23.444,0,0,1,3.2.923c2.264.769,4.44,3.689,5.527,7.093s1.092,4.454-.21,4.937a1.767,1.767,0,0,1-1.506-.209,3.5,3.5,0,0,1-1.553-1.947c-1.818-5.427-5.215-5.855-5.215-5.855l-1.066.3s3.505,2.446,3.444,5.407a3.356,3.356,0,0,1-.272,1.269,4.477,4.477,0,0,1-4.993,5.891c-.747-.129-1.553-.569-1.66-1.318a2.374,2.374,0,0,1,.24-1.159,3.765,3.765,0,0,0,.184-.606l-3.106.424s-7.029.581-10.06,1.179l-48.507,14.608a12.56,12.56,0,0,1-15.711-8.618h0A12.56,12.56,0,0,1,298.52,147.5Z" transform="translate(-287.631 -133.218)"/><g transform="translate(63.863 5.87)"><g transform="translate(0.024 0.003)"><path class="g" d="M342.743,141.036a2.61,2.61,0,0,0,2.233,2.067c1.065.223,2.176.078,3.255.224,3.226.435,5.736,3.37,8.98,3.65.452.038,1.022-.055,1.157-.489.124-.4-.223-.782-.538-1.061l-8.082-7.143" transform="translate(-342.743 -138.284)"/></g><path class="h" d="M349.751,138.284a4.359,4.359,0,0,1,.953.683c.588.469,1.424,1.165,2.448,2.033l3.578,3.074,1.028.9c.3.308.839.576.938,1.317a.909.909,0,0,1-.555.857,1.871,1.871,0,0,1-.871.144,7.129,7.129,0,0,1-1.56-.31c-2.037-.663-3.606-1.894-5.182-2.628a8.094,8.094,0,0,0-2.308-.766c-.749-.114-1.486-.09-2.168-.139a3.8,3.8,0,0,1-2.951-1.275c-.48-.656-.377-1.15-.356-1.134a3.126,3.126,0,0,0,.54.98,3.678,3.678,0,0,0,2.788.995c.658.021,1.4-.031,2.218.067a8.417,8.417,0,0,1,2.478.759c1.651.742,3.238,1.949,5.125,2.554a6.619,6.619,0,0,0,1.408.285c.446.031.831-.131.791-.367,0-.267-.374-.595-.724-.9l-1.014-.91-3.492-3.174c-.988-.91-1.779-1.654-2.318-2.179S349.722,138.317,349.751,138.284Z" transform="translate(-342.723 -138.282)"/></g><g transform="translate(80.821 12.576)"><path class="h" d="M357.352,144.442a4.441,4.441,0,0,1,2.038-.027,3.44,3.44,0,0,1,1.775,1.218,8.835,8.835,0,0,1,1.274,2.42,14.03,14.03,0,0,0,1.18,2.583,4.525,4.525,0,0,0,1.695,1.631,1.766,1.766,0,0,0,1.585.036c.338-.18.465-.351.454-.363-.022-.031-.185.1-.515.22a1.664,1.664,0,0,1-1.4-.144,4.485,4.485,0,0,1-1.513-1.575,15.533,15.533,0,0,1-1.12-2.532,8.528,8.528,0,0,0-1.362-2.51,3.6,3.6,0,0,0-1.989-1.258,3.2,3.2,0,0,0-1.583.049C357.514,144.3,357.343,144.421,357.352,144.442Z" transform="translate(-357.352 -144.066)"/></g><g transform="translate(79.681 4.029)"><path class="h" d="M369.145,136.7a11.2,11.2,0,0,0-1.887.64l-4.5,1.654-4.526,1.587a11.178,11.178,0,0,0-1.863.707,8.965,8.965,0,0,0,1.946-.438c1.186-.333,2.808-.847,4.577-1.481s3.347-1.271,4.472-1.769A8.9,8.9,0,0,0,369.145,136.7Z" transform="translate(-356.368 -136.693)"/></g><g transform="translate(76.847 15.835)"><path class="h" d="M356.528,146.88c-.02.023.14.181.408.473a1.852,1.852,0,0,1,.585,1.426.994.994,0,0,1-.611.767,5.325,5.325,0,0,1-1.252.345,2.233,2.233,0,0,0-1.4.749,1.906,1.906,0,0,0-.235,1.7,2.162,2.162,0,0,0,1.165,1.25,2.691,2.691,0,0,0,1.561.231,8.737,8.737,0,0,0,2.4-.9,5.15,5.15,0,0,0,1.384-1.032,1.159,1.159,0,0,0,.322-.547c-.031-.017-.144.174-.432.438a6.107,6.107,0,0,1-1.4.891,9.406,9.406,0,0,1-2.332.785,2.136,2.136,0,0,1-2.291-1.245,1.525,1.525,0,0,1,.172-1.348,1.909,1.909,0,0,1,1.166-.624,5.261,5.261,0,0,0,1.324-.41,1.283,1.283,0,0,0,.736-1.027,1.934,1.934,0,0,0-.755-1.567C356.735,146.976,356.544,146.863,356.528,146.88Z" transform="translate(-353.923 -146.879)"/></g><g transform="translate(77.246 19.953)"><path class="h" d="M355.366,152.773c0-.02-.223,0-.515.241a1.732,1.732,0,0,0-.58,1.441,2.311,2.311,0,0,0,1.372,1.84,3.774,3.774,0,0,0,2.812.039,4.571,4.571,0,0,0,2.234-1.7,4.373,4.373,0,0,0,.752-2.165,4.126,4.126,0,0,0-.167-1.527c-.112-.347-.218-.518-.24-.509a7.183,7.183,0,0,1,.128,2.008,4.26,4.26,0,0,1-2.839,3.521,3.509,3.509,0,0,1-2.528,0,2.054,2.054,0,0,1-1.246-1.537,1.648,1.648,0,0,1,.408-1.3C355.189,152.876,355.38,152.8,355.366,152.773Z" transform="translate(-354.267 -150.431)"/></g><g transform="translate(66.952 11.942)"><path class="h" d="M348.158,149.615c.035-.01-.017-.374-.333-.9a3.754,3.754,0,0,0-1.888-1.542l.021.35a11.255,11.255,0,0,0,1.185-.656,8.559,8.559,0,0,0,3.248-3.347,21.647,21.647,0,0,1-3.461,3.012c-.387.247-.774.464-1.138.649l-.4.205.423.145a3.951,3.951,0,0,1,1.819,1.319C347.978,149.307,348.109,149.634,348.158,149.615Z" transform="translate(-345.387 -143.52)"/></g><g transform="translate(85.164 12.497)"><path class="h" d="M361.788,144c-.075-.073-.622.532-.683,1.487s.393,1.629.478,1.566c.1-.05-.146-.708-.081-1.538C361.549,144.688,361.885,144.069,361.788,144Z" transform="translate(-361.098 -143.999)"/></g></g><g transform="translate(0 106.102)"><path class="g" d="M158.3,162.084s-7.566-12.262-8.905-13.3-13.317-5.426-14.339-5.1-15.538,2.8-13.871,4.526,11.788-.147,11.788-.147l1.359.679s-8.743,1.393-10.585,2.456c-1.694.98-1.113,3.053.488,2.889s9.2-1.637,9.65-1.325-8.264,2.049-9.2,2.6c-1.262.747-1.389,2.991.2,2.881.94-.065,9.161-2.187,9.161-2.187s-6.519,2.512-7.12,3.082c-.984.933-.2,2.352,1.208,2.041.969-.214,5.574-2.409,6.873-2.693,0,0,1.213.325,2.314,2.78.514,1.145,2.853,8.29,7.131,8.2,3.789-.083,7.511,3.041,7.511,3.041Z" transform="translate(-121.049 -143.662)"/><g transform="translate(0.162 3.912)"><path class="h" d="M121.189,147.7a6.685,6.685,0,0,0,2.644.731,15.652,15.652,0,0,0,2.991.125c1.109-.124,2.322-.3,3.6-.472l2.707-.4-.162-.015c3.578,1.276,6.2,2.106,6.259,1.964s-2.48-1.217-6.038-2.577l-.072-.028-.092.013-2.686.363-3.555.519a19.226,19.226,0,0,1-2.9.023C122.23,147.84,121.215,147.6,121.189,147.7Z" transform="translate(-121.189 -147.037)"/></g><g transform="translate(14.371 8.831)"><g transform="translate(0.334 0.329)"><path class="g" d="M150.607,159.372a2.893,2.893,0,0,1-3.372,0c-1.034-.622-1.827-1.577-2.815-2.272-2.951-2.08-7.2-1.586-10.053-3.8-.4-.31-.789-.816-.572-1.269.2-.421.771-.468,1.237-.457l11.956.287" transform="translate(-133.734 -151.565)"/></g><path class="h" d="M147.035,151.9a4.764,4.764,0,0,0-1.29-.163c-.831-.061-2.036-.128-3.523-.194l-5.227-.2-1.512-.048a2.376,2.376,0,0,0-1.755.364,1.008,1.008,0,0,0-.195,1.115,2.072,2.072,0,0,0,.6.773,7.847,7.847,0,0,0,1.5.924c2.156,1,4.36,1.18,6.195,1.771a9.013,9.013,0,0,1,2.453,1.117c.694.472,1.276,1.047,1.867,1.521a4.207,4.207,0,0,0,3.361,1.189c.883-.172,1.173-.65,1.143-.653a3.471,3.471,0,0,1-1.177.389,4.08,4.08,0,0,1-3.016-1.294c-.552-.48-1.114-1.08-1.854-1.617a9.31,9.31,0,0,0-2.587-1.252c-1.9-.642-4.1-.858-6.091-1.789a7.376,7.376,0,0,1-1.361-.83c-.386-.312-.577-.733-.365-.9.2-.213.753-.2,1.266-.183l1.512.024,5.23.053c1.49,0,2.7,0,3.529-.023A4.759,4.759,0,0,0,147.035,151.9Z" transform="translate(-133.446 -151.281)"/></g></g><g transform="translate(84.076 396.041)"><path class="c" d="M205.678,393.78l-2.765,30.41-9.121,23.423a3.127,3.127,0,0,0,1.981,4.12h0a3.1,3.1,0,0,0,2.822-.49c5.136-3.912,23.957-18.4,24.035-20.635.09-2.591,5.045-31.884,5.045-31.884Z" transform="translate(-193.578 -393.78)"/><g class="i" transform="translate(2.195 34.78)"><path class="e" d="M195.472,446.956l27.091-23.173-.147,1.284a4.7,4.7,0,0,1-1.455,2.907c-2.184,2.045-8.339,7.557-22.576,18.5a3.123,3.123,0,0,1-2.913.479Z" transform="translate(-195.472 -423.783)"/></g><g class="i" transform="translate(23.218 24.079)"><path class="e" d="M214.564,414.756a1.893,1.893,0,0,0-.794,2.4,1.82,1.82,0,0,0,2.369.809,2,2,0,0,0,.828-2.543,1.886,1.886,0,0,0-2.557-.568" transform="translate(-213.607 -414.552)"/></g><g transform="translate(4.832 41.468)"><path class="j" d="M203.555,433.573c-.181.064-.684-1.6-2.391-2.664-1.675-1.11-3.4-.874-3.416-1.066-.017-.076.393-.269,1.115-.289a4.989,4.989,0,0,1,4.492,2.884C203.637,433.1,203.634,433.556,203.555,433.573Z" transform="translate(-197.747 -429.553)"/></g><g transform="translate(2.557 46.671)"><path class="j" d="M201.244,436.674c-.16.115-1.021-.982-2.539-1.61-1.5-.662-2.892-.525-2.919-.72-.071-.165,1.463-.642,3.182.1C200.694,435.172,201.411,436.611,201.244,436.674Z" transform="translate(-195.784 -434.041)"/></g><g transform="translate(7.126 36.314)"><path class="j" d="M207.856,429.532c-.158.127-1.475-1.567-3.749-2.751-2.257-1.22-4.4-1.359-4.381-1.563-.031-.167,2.271-.332,4.695.97C206.856,427.465,208.012,429.463,207.856,429.532Z" transform="translate(-199.726 -425.106)"/></g><g transform="translate(8.994 29.745)"><path class="j" d="M209.213,421.26c-.1.173-1.7-.719-3.871-1.046-2.168-.358-3.96,0-4-.2-.066-.158,1.778-.844,4.108-.466C207.78,419.908,209.324,421.13,209.213,421.26Z" transform="translate(-201.337 -419.439)"/></g><g transform="translate(9.765 20.774)"><path class="j" d="M210.143,413.586c-.114.165-1.683-1.039-4-1.2-2.311-.209-4.051.733-4.138.552-.042-.068.333-.412,1.078-.736a6.822,6.822,0,0,1,6.111.483C209.88,413.127,210.2,413.524,210.143,413.586Z" transform="translate(-202.002 -411.701)"/></g><g transform="translate(9.77 14.147)"><path class="j" d="M206.39,411.611a2.653,2.653,0,0,1,.089-1.152,8.022,8.022,0,0,1,1.255-2.9,3.562,3.562,0,0,1,1.708-1.515,1.26,1.26,0,0,1,1.377.439,2.044,2.044,0,0,1,.323,1.424,4.423,4.423,0,0,1-4.315,3.627,5.13,5.13,0,0,1-4.7-3.237,1.78,1.78,0,0,1,.085-1.48,1.232,1.232,0,0,1,1.356-.5,4.374,4.374,0,0,1,1.88,1.267,8.959,8.959,0,0,1,1.8,2.593,2.708,2.708,0,0,1,.347,1.1,14.21,14.21,0,0,0-2.477-3.352,4.076,4.076,0,0,0-1.666-1.064.656.656,0,0,0-.741.269,1.222,1.222,0,0,0,0,.976,4.577,4.577,0,0,0,4.109,2.759,3.837,3.837,0,0,0,3.706-3.026,1.482,1.482,0,0,0-.183-1,.682.682,0,0,0-.756-.253,3.215,3.215,0,0,0-1.471,1.257A11.879,11.879,0,0,0,206.39,411.611Z" transform="translate(-202.006 -405.984)"/></g></g><g transform="translate(91.354 182.641)"><g transform="translate(0 9.145)"><path class="j" d="M232.639,439.671l22.757-180.2-7.278-41.889L205.2,219.855l-5.344,216.489a3.306,3.306,0,0,0,2.671,3.333l24.995,3.853A4.47,4.47,0,0,0,232.639,439.671Z" transform="translate(-199.856 -217.579)"/></g><g transform="translate(36.723 0)"><path class="j" d="M249.7,266.768l41.39,40.963-59.553,14.483,4.239,30.047,80.61-10.971a25.369,25.369,0,0,0,17.156-10.3h0a25.368,25.368,0,0,0,.388-29.117l-62.8-92.183-28.059,9.145Z" transform="translate(-231.535 -209.69)"/></g><g transform="translate(52.563 46.653)"><path class="k" d="M245.237,249.936c.163-.036.807,2.27,1.439,5.148a23.889,23.889,0,0,1,.849,5.279c-.163.035-.807-2.27-1.439-5.149A23.956,23.956,0,0,1,245.237,249.936Z" transform="translate(-245.2 -249.936)"/></g><g transform="translate(29.065 46.147)"><path class="k" d="M242.434,319.661s.33-.123.984-.329l2.9-.9,11.108-3.378L297.838,302.9l-.1.385-49.685-52.911.512-.168c-.983,8.313-2.011,17-3.059,25.85-5.124,42.921-9.938,81.752-13.665,109.83-1.849,14.04-3.479,25.384-4.67,33.214-.662,3.905-1.1,6.949-1.55,8.989q-.325,1.509-.5,2.321c-.116.522-.19.785-.19.785s.034-.274.13-.8c.1-.545.249-1.319.439-2.329.411-2.04.811-5.092,1.437-9,1.119-7.839,2.685-19.188,4.479-33.235,3.618-28.088,8.365-66.926,13.489-109.846,1.051-8.854,2.081-17.535,3.067-25.848l.077-.636.437.467,49.591,53,.26.277-.363.108L257.5,315.307l-11.143,3.256-2.918.835C242.779,319.584,242.434,319.661,242.434,319.661Z" transform="translate(-224.929 -249.499)"/></g><g transform="translate(33.169 57.076)"><path class="k" d="M228.474,429.689c-.165-.022,4.563-38.268,10.557-85.415,6-47.164,10.992-85.368,11.157-85.347s-4.561,38.259-10.558,85.424C233.634,391.5,228.639,429.71,228.474,429.689Z" transform="translate(-228.469 -258.927)"/></g><g transform="translate(48.147 27.583)"><path class="k" d="M241.407,233.485a13.452,13.452,0,0,1,.96,2.794c.507,1.75,1.137,4.188,1.73,6.9s1.034,5.2,1.3,7a13.482,13.482,0,0,1,.29,2.94,15.394,15.394,0,0,1-.711-2.864c-.421-1.988-.919-4.342-1.471-6.945-.582-2.6-1.108-4.943-1.553-6.926A15.415,15.415,0,0,1,241.407,233.485Z" transform="translate(-241.391 -233.485)"/></g><g transform="translate(49.828 23.733)"><path class="k" d="M243.838,230.484c-.065-.036.581-.566,1.681-.182a1.961,1.961,0,0,1,1.257,1.483,2.15,2.15,0,0,1-.939,2.194,2.088,2.088,0,0,1-2.379-.234,1.769,1.769,0,0,1-.537-1.872,1.75,1.75,0,0,1,.774-1.034c.271-.152.447-.148.457-.115.054.078-.633.322-.816,1.25a1.341,1.341,0,0,0,.476,1.342,1.575,1.575,0,0,0,1.711.147,1.642,1.642,0,0,0,.7-1.589,1.558,1.558,0,0,0-.878-1.181A3.191,3.191,0,0,0,243.838,230.484Z" transform="translate(-242.84 -230.163)"/></g><g transform="translate(96.355 98.001)"><path class="k" d="M295.088,301.285c-.125.138-2.455-2.009-5.809-3.941-3.34-1.957-6.358-2.917-6.3-3.094a22.965,22.965,0,0,1,12.11,7.035Z" transform="translate(-282.977 -294.231)"/></g></g><g transform="translate(24.492 61.164)"><g transform="translate(62.105)"><path class="c" d="M219.516,112.681l-23.764,11.473,10.243,71.5-4.024,32.092a12.537,12.537,0,0,0,4.191,11h0l38.378-.756,26.876-14.776,12.343-2.087L278.705,196.7l2.264-34.652,28.091,15a9.786,9.786,0,0,0,7.06.842l51.5-13.319-2.675-19.842-46.622,5.271-35.506-31.373-26.427-5.941-4.712-7.784H224.637l-1.891,1.418a5.667,5.667,0,0,0-1.954,2.679Z" transform="translate(-195.752 -104.897)"/></g><g transform="translate(0 2.641)"><g transform="translate(0 16.616)"><path class="c" d="M204.282,121.509s-7.8,4.938-10.7,13.958c-2.716,8.434-8.845,42.55-8.845,42.55l-27-16.754-15.56,16.355,35.994,31.74a18.3,18.3,0,0,0,20.04,2.762h0a18.3,18.3,0,0,0,10.189-14.01l4.418-32.349Z" transform="translate(-142.177 -121.509)"/></g><g transform="translate(120.47 116.376)"><path class="g" d="M268.814,210.027l-1.672-2.46-17.77,3.284-3.271,7.571Z" transform="translate(-246.101 -207.568)"/></g><g transform="translate(72.515 76.2)"><path class="c" d="M204.732,227.913c15.877,6.39,32.832,4.041,47.955-3.973,4.565-2.419,8.8-5.43,13.382-7.812s9.674-4.146,14.827-3.786,10.354,3.208,12.415,7.945,0,11.186-4.852,12.954l1.718,1.536c7.129-3.319,10.509-12.919,7.032-19.972-2.667-5.41-8.272-8.633-12.38-13.05-6.039-6.494-6.669-19.063-6.707-28.846" transform="translate(-204.732 -172.91)"/></g><g transform="translate(85.859 5.143)"><path class="j" d="M237.731,125.433a5.564,5.564,0,0,1-1.17.067,4.444,4.444,0,0,0-2.813,1.3,6.585,6.585,0,0,0-1.4,4.534,15.107,15.107,0,0,0,1.289,6.08l.446,1-.874-.648a47.113,47.113,0,0,1-5.987-5.3,44.087,44.087,0,0,1-9.2-14.093,31.349,31.349,0,0,1-1.494-4.9,11.03,11.03,0,0,1-.267-1.859,53.981,53.981,0,0,0,2.156,6.6,46.446,46.446,0,0,0,9.245,13.836,49.286,49.286,0,0,0,5.891,5.257l-.428.348a13.97,13.97,0,0,1-.99-3.25,14.4,14.4,0,0,1-.265-3.078,6.853,6.853,0,0,1,1.633-4.771,4.484,4.484,0,0,1,3.056-1.239A5.566,5.566,0,0,1,237.731,125.433Z" transform="translate(-216.244 -111.612)"/></g><g transform="translate(108.772)"><g transform="translate(0 0.236)"><path class="c" d="M236.01,126.107c1.954-.843,4.852.4,6.257,2,.929,1.057,1.45,2.526,2.673,3.221s5.088,1.233,6.211.374c0,0,.687-3.3,1.047-4.668a103.726,103.726,0,0,0,2.643-15.861c-3.742-1.808-2.71-4.2-9.436-3.741,0,0,1.684,4.966.234,9.484" transform="translate(-236.01 -107.379)"/></g><path class="j" d="M245.64,116.952c-.063-.017.245-.9.391-2.541a18.758,18.758,0,0,0-.836-6.871l-.087-.278.283-.016a11.6,11.6,0,0,1,4.963.447,7.6,7.6,0,0,1,2.291,1.651,9.232,9.232,0,0,0,2.322,1.608l.182.085-.021.2c-.3,2.816-.642,5.889-1.174,9.06-.349,2.073-.766,4.083-1.252,6s-.866,3.752-1.277,5.5l-.027.115-.077.049a3.7,3.7,0,0,1-1.986.483,12.119,12.119,0,0,1-3.6-.5,3.694,3.694,0,0,1-1.523-.83,15.9,15.9,0,0,1-1.786-2.451A6.268,6.268,0,0,0,240.6,127a6.482,6.482,0,0,0-3.336-1.041,7.22,7.22,0,0,0-1.257.176,2.561,2.561,0,0,1,1.25-.354,6.351,6.351,0,0,1,3.515.932,6.519,6.519,0,0,1,1.978,1.708,16.529,16.529,0,0,0,1.774,2.347,5.691,5.691,0,0,0,3.017,1.041,11.1,11.1,0,0,0,1.775.1,3.3,3.3,0,0,0,1.667-.389l-.1.163c.4-1.752.771-3.624,1.246-5.527s.882-3.9,1.23-5.955c.529-3.151.881-6.212,1.2-9.022l.16.289a9.687,9.687,0,0,1-2.444-1.718,7.146,7.146,0,0,0-2.123-1.577,11.385,11.385,0,0,0-4.73-.482l.2-.294a17.921,17.921,0,0,1,.661,7.039,11.683,11.683,0,0,1-.4,1.888A2.646,2.646,0,0,1,245.64,116.952Z" transform="translate(-236.01 -107.175)"/></g><g transform="translate(107.346 20.66)"><path class="j" d="M285.439,223.574c-.046,0,.053-.464-.01-1.331a8.116,8.116,0,0,0-1.143-3.575,11.9,11.9,0,0,0-4.262-4.116,18,18,0,0,0-7.6-2.087c-2.948-.27-6.211-.11-9.723-.348a36.42,36.42,0,0,1-10.966-2.324,22.61,22.61,0,0,1-9.892-7.387A17.244,17.244,0,0,1,239,196.45a22.856,22.856,0,0,1-.65-6.755c.18-4.59,1.235-8.935,1.87-13.152a99.2,99.2,0,0,0,1.158-12.248,101.7,101.7,0,0,0-1.526-20.763,103.109,103.109,0,0,0-3.419-13.638c-.5-1.587-.945-2.8-1.237-3.623-.132-.388-.239-.7-.322-.944a1.389,1.389,0,0,1-.09-.329,1.467,1.467,0,0,1,.147.306l.38.923c.328.813.813,2.014,1.345,3.592a95.276,95.276,0,0,1,3.616,13.636,99.68,99.68,0,0,1,1.662,20.855,98.055,98.055,0,0,1-1.13,12.324c-.633,4.245-1.676,8.575-1.851,13.083a18.793,18.793,0,0,0,3.368,12.339,22.109,22.109,0,0,0,9.623,7.221,36.133,36.133,0,0,0,10.795,2.343c3.47.257,6.743.121,9.726.421a18.2,18.2,0,0,1,7.734,2.221,12.021,12.021,0,0,1,4.295,4.29,7.933,7.933,0,0,1,1.061,3.686,4.948,4.948,0,0,1-.053,1A1.4,1.4,0,0,1,285.439,223.574Z" transform="translate(-234.779 -124.998)"/></g><g transform="translate(96.546 98.088)"><path class="j" d="M269.583,191.793a11.708,11.708,0,0,1-1.339,1.384c-.44.438-.992.959-1.668,1.524s-1.414,1.248-2.3,1.912a63.283,63.283,0,0,1-6.413,4.434,65.091,65.091,0,0,1-17.574,7.36,63.142,63.142,0,0,1-7.66,1.458c-1.1.169-2.1.224-2.979.3s-1.636.112-2.256.119a11.626,11.626,0,0,1-1.927-.017,11.741,11.741,0,0,1,1.913-.217c.616-.043,1.369-.1,2.238-.22s1.865-.194,2.951-.388a70.951,70.951,0,0,0,7.578-1.574,69.168,69.168,0,0,0,17.43-7.3,70.639,70.639,0,0,0,6.438-4.295c.9-.638,1.659-1.288,2.347-1.832s1.265-1.031,1.727-1.44A11.787,11.787,0,0,1,269.583,191.793Z" transform="translate(-225.463 -191.792)"/></g><g transform="translate(93.891 60.013)"><path class="j" d="M262.477,158.946a2.5,2.5,0,0,1-.1.638c-.107.48-.241,1.078-.4,1.808a27.1,27.1,0,0,1-.766,2.831c-.348,1.089-.686,2.351-1.236,3.684q-.388,1.012-.81,2.112c-.286.731-.655,1.464-1,2.238-.664,1.561-1.55,3.144-2.445,4.827a66.9,66.9,0,0,1-15.858,18.906c-1.5,1.175-2.906,2.322-4.328,3.248-.7.473-1.36.962-2.031,1.373l-1.938,1.166c-1.217.772-2.4,1.325-3.414,1.857a26.951,26.951,0,0,1-2.653,1.247l-1.71.713a2.555,2.555,0,0,1-.611.21,2.683,2.683,0,0,1,.563-.322l1.659-.814c.728-.337,1.61-.764,2.6-1.333s2.154-1.133,3.349-1.924l1.906-1.191c.66-.417,1.305-.913,2-1.392,1.4-.937,2.781-2.089,4.261-3.267a69.193,69.193,0,0,0,15.729-18.751c.9-1.662,1.8-3.223,2.475-4.763.35-.765.727-1.487,1.022-2.209s.573-1.418.84-2.083c.571-1.315.935-2.56,1.313-3.633s.656-2.014.86-2.789c.208-.718.378-1.305.514-1.776A2.67,2.67,0,0,1,262.477,158.946Z" transform="translate(-223.173 -158.946)"/></g><g transform="translate(77.354 121.327)"><path class="j" d="M215.862,227.539a7.026,7.026,0,0,1-2.114-1.575,16.124,16.124,0,0,1-4.84-11.513,7.019,7.019,0,0,1,.355-2.612c.1.014-.015,1.009.073,2.6a18.128,18.128,0,0,0,4.718,11.226C215.131,226.843,215.924,227.456,215.862,227.539Z" transform="translate(-208.907 -211.839)"/></g><g transform="translate(82.85 127.996)"><path class="j" d="M214.261,217.593c.173.046-.147,1.535.02,3.363.145,1.832.713,3.243.549,3.318a6.9,6.9,0,0,1-.569-6.681Z" transform="translate(-213.648 -217.592)"/></g><g transform="translate(61.946 32.481)"><path class="j" d="M205.693,189.208a1.956,1.956,0,0,1-.14-.544c-.079-.429-.173-.949-.287-1.577-.246-1.465-.574-3.427-.973-5.808-.816-4.9-1.97-11.673-3.358-19.129s-2.755-14.189-3.762-19.057c-.486-2.365-.887-4.312-1.186-5.768-.119-.625-.218-1.144-.3-1.573a1.994,1.994,0,0,1-.065-.558,1.909,1.909,0,0,1,.183.53l.412,1.549c.347,1.348.816,3.3,1.372,5.73,1.115,4.848,2.546,11.572,3.939,19.038s2.478,14.25,3.186,19.175c.355,2.462.621,4.457.785,5.839.07.633.126,1.159.174,1.593A1.969,1.969,0,0,1,205.693,189.208Z" transform="translate(-195.615 -135.195)"/></g><g transform="translate(146.08 30.189)"><path class="j" d="M268.333,189.523a2.058,2.058,0,0,1-.058-.574c-.014-.446-.03-.989-.049-1.645-.036-1.43-.041-3.5-.023-6.055.049-5.112.271-12.178.862-19.958s1.375-14.8,1.98-19.878c.312-2.464.568-4.493.759-6,.1-.65.175-1.188.24-1.629a2.084,2.084,0,0,1,.124-.563,2.089,2.089,0,0,1,0,.576c-.034.445-.077.986-.126,1.641-.144,1.516-.336,3.552-.569,6.024-.5,5.085-1.215,12.107-1.8,19.877s-.881,14.817-1.039,19.921c-.07,2.483-.126,4.526-.169,6.048l-.064,1.645A2.1,2.1,0,0,1,268.333,189.523Z" transform="translate(-268.194 -133.218)"/></g><g transform="translate(42.555 73.121)"><path class="j" d="M189.859,186.614c-.205.09-1.732-4.135-4.687-8.725-2.976-4.592-6.43-7.48-6.281-7.632a10.9,10.9,0,0,1,2.271,1.85,31.3,31.3,0,0,1,4.515,5.452,37.81,37.81,0,0,1,3.256,6.278A12.006,12.006,0,0,1,189.859,186.614Z" transform="translate(-178.887 -170.253)"/></g><g transform="translate(42.559 73.112)"><path class="j" d="M191.851,181.577a21.7,21.7,0,0,1-1.3-2.257,18.083,18.083,0,0,0-4.007-4.691,25.526,25.526,0,0,0-5.3-3.231,15.122,15.122,0,0,1-2.349-1.141,9.021,9.021,0,0,1,2.518.749,20.705,20.705,0,0,1,5.519,3.157,15.773,15.773,0,0,1,4,4.95A7.658,7.658,0,0,1,191.851,181.577Z" transform="translate(-178.89 -170.246)"/></g><g transform="translate(47.386 41.335)"><path class="l" d="M203.129,158.06a1.744,1.744,0,0,1-.241.514,5.287,5.287,0,0,1-1.063,1.238,7.048,7.048,0,0,1-5.682,1.53,10.992,10.992,0,0,1-7.135-5.045,23.81,23.81,0,0,1-2.353-4.682c-.323-.847-.65-1.7-.925-2.611a7.124,7.124,0,0,1-.326-2.913,3.967,3.967,0,0,1,1.412-2.63,3.339,3.339,0,0,1,2.862-.512,5.6,5.6,0,0,1,3.815,3.617,5.44,5.44,0,0,1-.473,4.741,5.906,5.906,0,0,1-3.31,2.535,5.3,5.3,0,0,1-3.432-.162,5.889,5.889,0,0,1-2.143-1.456,4.954,4.954,0,0,1-.9-1.361,1.619,1.619,0,0,1-.174-.54,8.06,8.06,0,0,0,1.245,1.736,5.839,5.839,0,0,0,2.094,1.3,4.984,4.984,0,0,0,3.19.071,5.5,5.5,0,0,0,3.006-2.388,4.937,4.937,0,0,0,.378-4.293,5.052,5.052,0,0,0-3.428-3.228,2.752,2.752,0,0,0-2.36.412,3.39,3.39,0,0,0-1.18,2.235c-.21,1.8.612,3.561,1.2,5.229a23.92,23.92,0,0,0,2.265,4.588,10.658,10.658,0,0,0,6.744,4.932,6.94,6.94,0,0,0,5.462-1.291A8.54,8.54,0,0,0,203.129,158.06Z" transform="translate(-183.055 -142.833)"/></g><g transform="translate(65.465 30.385)"><path class="l" d="M246.22,177.367a2.183,2.183,0,0,1-.316.274l-.968.749a25.641,25.641,0,0,1-3.991,2.509,12.262,12.262,0,0,1-3.249,1.08,8.477,8.477,0,0,1-4.068-.263c-2.845-.905-5.434-3.337-7.345-6.467a23.59,23.59,0,0,1,.214-24.631,12.743,12.743,0,0,1,5.456-5.1,7.163,7.163,0,0,1,3.909-.5,5.393,5.393,0,0,1,3.5,1.983,5.69,5.69,0,0,1,1.091,3.945,9.087,9.087,0,0,1-1.255,3.946,12.846,12.846,0,0,1-6.446,5.227,16.551,16.551,0,0,1-8.273.853,17.014,17.014,0,0,1-7.462-3.09,25.518,25.518,0,0,1-8.766-12.289,14.769,14.769,0,0,1-1.066-7.036,7.082,7.082,0,0,1,1.35-3.2,4.972,4.972,0,0,1,2.831-1.844,6.2,6.2,0,0,1,5.838,2.017,6.65,6.65,0,0,1,1.411,5.557,8.83,8.83,0,0,1-2.379,4.681,11.343,11.343,0,0,1-3.92,2.568,17.873,17.873,0,0,1-7.363,1.113,43.083,43.083,0,0,1-4.687-.476l-1.208-.195a2.163,2.163,0,0,1-.408-.088,2.117,2.117,0,0,1,.416.027l1.216.136c1.068.114,2.643.314,4.676.362a17.852,17.852,0,0,0,7.229-1.191,11.029,11.029,0,0,0,3.772-2.521,8.433,8.433,0,0,0,2.234-4.483,6.212,6.212,0,0,0-1.337-5.179A5.731,5.731,0,0,0,211.48,134c-2.033.431-3.458,2.48-3.77,4.643a14.306,14.306,0,0,0,1.066,6.767,25.016,25.016,0,0,0,8.586,11.993,16.435,16.435,0,0,0,7.207,2.978,15.961,15.961,0,0,0,7.967-.824,12.256,12.256,0,0,0,6.145-4.967,8.5,8.5,0,0,0,1.178-3.68,5.09,5.09,0,0,0-.963-3.544,4.8,4.8,0,0,0-3.126-1.768,6.582,6.582,0,0,0-3.591.45,12.217,12.217,0,0,0-5.214,4.872,22.723,22.723,0,0,0-3.534,12.867,22.962,22.962,0,0,0,3.218,11.239c1.85,3.087,4.361,5.47,7.084,6.369a9.579,9.579,0,0,0,7.112-.708,28.178,28.178,0,0,0,4.021-2.395l1-.7A2.027,2.027,0,0,1,246.22,177.367Z" transform="translate(-198.651 -133.387)"/></g><g transform="translate(58.01 9.321)"><path class="l" d="M215.259,115.217a3.442,3.442,0,0,1-.367,1.037,16.532,16.532,0,0,1-1.487,2.607,19.1,19.1,0,0,1-17.184,8.2,16.6,16.6,0,0,1-2.963-.485,3.446,3.446,0,0,1-1.038-.367c.024-.109,1.532.335,4.024.425a19.912,19.912,0,0,0,16.814-8.023C214.556,116.619,215.16,115.167,215.259,115.217Z" transform="translate(-192.22 -115.216)"/></g><g transform="translate(92.741 14.153)"><path class="l" d="M227.615,119.489a7.425,7.425,0,0,0-5.386,4.572c-.072-.01-.093-.46.134-1.144a5.429,5.429,0,0,1,4.1-3.48C227.175,119.324,227.617,119.418,227.615,119.489Z" transform="translate(-222.181 -119.384)"/></g><g transform="translate(115.967 10.707)"><path class="l" d="M248.942,126.775a2.647,2.647,0,0,1-.983-.453,8.009,8.009,0,0,1-2.179-2,7.876,7.876,0,0,1-1.608-4.111,3.926,3.926,0,0,1,.712-2.6,2.694,2.694,0,0,1,2.687-1.136,2.984,2.984,0,0,1,2.107,2.025,2.8,2.8,0,0,1-.531,2.666,3.753,3.753,0,0,1-4.2,1.114,4.724,4.724,0,0,1-2.292-1.9,2.22,2.22,0,0,1-.432-1c.048-.023.205.329.625.86a4.808,4.808,0,0,0,2.24,1.63,3.323,3.323,0,0,0,3.625-1.057,2.229,2.229,0,0,0,.4-2.138,2.416,2.416,0,0,0-1.673-1.617,2.116,2.116,0,0,0-2.087.9,3.4,3.4,0,0,0-.627,2.221,7.723,7.723,0,0,0,1.4,3.886A12.045,12.045,0,0,0,248.942,126.775Z" transform="translate(-242.217 -116.411)"/></g><g transform="translate(118.887 3.714)"><path class="l" d="M253.164,114.2c-.14.119-1.4-1.705-3.827-2.671-2.4-1.015-4.585-.605-4.6-.788-.016-.07.5-.279,1.4-.348a7.873,7.873,0,0,1,6.279,2.578C253,113.653,253.224,114.166,253.164,114.2Z" transform="translate(-244.736 -110.379)"/></g><g transform="translate(115.274 11.545)"><path class="l" d="M285.536,126.622a.905.905,0,0,1-.227.143l-.7.363a29.842,29.842,0,0,1-2.784,1.185,33.565,33.565,0,0,1-10.92,2.052,15.485,15.485,0,0,1-3.707-.358,8.093,8.093,0,0,1-3.657-1.782,5.423,5.423,0,0,1-1.792-3.968,6.685,6.685,0,0,1,1.542-4.361c2.124-2.511,5.915-3.328,9.23-2.372a10.753,10.753,0,0,1,7.4,7.165,10.568,10.568,0,0,1-2.208,10.047,16.2,16.2,0,0,1-8.584,4.619,49.243,49.243,0,0,1-8.794.888,48.424,48.424,0,0,0-7.588.741,15.388,15.388,0,0,0-9.341,5.328,11.2,11.2,0,0,0-1.779,3.6.874.874,0,0,1,.037-.267,7.514,7.514,0,0,1,.185-.767,9.241,9.241,0,0,1,1.368-2.707,15.422,15.422,0,0,1,9.443-5.606,47.869,47.869,0,0,1,7.651-.823,49.4,49.4,0,0,0,8.692-.93,15.7,15.7,0,0,0,8.267-4.469,9.994,9.994,0,0,0,2.073-9.483,10.178,10.178,0,0,0-6.98-6.767c-3.124-.916-6.7-.132-8.642,2.161a6.156,6.156,0,0,0-1.437,3.993,4.908,4.908,0,0,0,1.6,3.609,7.638,7.638,0,0,0,3.424,1.7,15.234,15.234,0,0,0,3.6.385,34.791,34.791,0,0,0,10.844-1.847c1.238-.42,2.177-.808,2.813-1.073A7.25,7.25,0,0,1,285.536,126.622Z" transform="translate(-241.619 -117.135)"/></g><g transform="translate(114.16 59.004)"><path class="l" d="M256.771,165.621c-.1.044-.5-.971-1.559-2.328a11.929,11.929,0,0,0-11.847-4.454c-1.689.326-2.663.822-2.707.726a6.324,6.324,0,0,1,2.614-1.142,11.463,11.463,0,0,1,12.284,4.617A6.324,6.324,0,0,1,256.771,165.621Z" transform="translate(-240.657 -158.075)"/></g><g transform="translate(127.582 75.311)"><path class="l" d="M268.468,172.145a5.683,5.683,0,0,1-1.586,2.343,9.714,9.714,0,0,1-12.708,1.009,5.679,5.679,0,0,1-1.935-2.063c.081-.072.747.789,2.176,1.711a9.881,9.881,0,0,0,12.174-.966C267.855,173.043,268.377,172.086,268.468,172.145Z" transform="translate(-252.236 -172.143)"/></g><g transform="translate(135.239 50.732)"><path class="l" d="M270.942,152.462c-.051.087-.749-.335-1.982-.661a8.49,8.49,0,0,0-8.877,2.84c-.815.981-1.138,1.728-1.23,1.688a4.007,4.007,0,0,1,.891-1.947,8.126,8.126,0,0,1,9.341-2.988A4.038,4.038,0,0,1,270.942,152.462Z" transform="translate(-258.841 -150.94)"/></g><g transform="translate(158.084 39.666)"><path class="l" d="M310.992,143.315a4.768,4.768,0,0,1,.212.86,6.229,6.229,0,0,1,.145,1.066,8.5,8.5,0,0,1,.041,1.471,14.71,14.71,0,0,1-3.321,8.64,15.3,15.3,0,0,1-5,4.119,15.5,15.5,0,0,1-7.242,1.663,19.481,19.481,0,0,1-14.89-7.369,11.659,11.659,0,0,1-2.1-4.017,7.608,7.608,0,0,1,.075-4.422,5.635,5.635,0,0,1,2.713-3.31,6.247,6.247,0,0,1,4.076-.482,6.92,6.92,0,0,1,3.446,1.829,7.924,7.924,0,0,1,1.891,3.143,10.533,10.533,0,0,1-.052,6.468,12.3,12.3,0,0,1-2.736,4.593,12.485,12.485,0,0,1-3.191,2.467,11.892,11.892,0,0,1-2.366.942,4.635,4.635,0,0,1-.871.163,17.134,17.134,0,0,0,3.123-1.311,12.51,12.51,0,0,0,5.634-6.982,10.16,10.16,0,0,0-.015-6.182,7.448,7.448,0,0,0-1.791-2.925,6.388,6.388,0,0,0-3.183-1.66,5.684,5.684,0,0,0-3.7.449,5.059,5.059,0,0,0-2.417,2.983,7.025,7.025,0,0,0-.057,4.078,11.091,11.091,0,0,0,2,3.806,19.018,19.018,0,0,0,14.418,7.182,14.76,14.76,0,0,0,11.9-5.495,14.776,14.776,0,0,0,3.42-8.382A21.412,21.412,0,0,0,310.992,143.315Z" transform="translate(-278.549 -141.394)"/></g><g transform="translate(197.189 40.965)"><path class="l" d="M314.565,167.143a3.08,3.08,0,0,1-.706-.8,8.354,8.354,0,0,1-1.266-2.622,10.747,10.747,0,0,1-.175-4.319,39.637,39.637,0,0,1,1.175-5.117,36.267,36.267,0,0,1,4.149-8.557c.65-1.026,1.2-1.837,1.594-2.391a3.6,3.6,0,0,1,.663-.825,29.63,29.63,0,0,1-1.892,3.437,42.751,42.751,0,0,0-3.937,8.513,45.526,45.526,0,0,0-1.2,5.022,10.927,10.927,0,0,0,.038,4.133A15.4,15.4,0,0,0,314.565,167.143Z" transform="translate(-312.283 -142.514)"/></g><g transform="translate(216.73 38.922)"><path class="l" d="M333.83,140.752c.041-.013.162.283.351.83a14.966,14.966,0,0,1,.584,2.383,21.357,21.357,0,0,1-3.42,15.5,14.884,14.884,0,0,1-1.534,1.915c-.4.417-.636.633-.667.605-.081-.072.769-1.024,1.843-2.753a23.555,23.555,0,0,0,3.355-15.2C334.1,142.005,333.727,140.783,333.83,140.752Z" transform="translate(-329.14 -140.752)"/></g><g transform="translate(116.693 89.296)"><path class="l" d="M271.721,188.043a2.112,2.112,0,0,1-.508-.26,13.087,13.087,0,0,0-1.414-.771,16.592,16.592,0,0,0-5.651-1.583,17.223,17.223,0,0,0-8.512,1.364,14.63,14.63,0,0,0-4.251,2.817,8.8,8.8,0,0,0-1.674,2.07,4.182,4.182,0,0,0-.582,2.544,3.03,3.03,0,0,0,1.238,2.177,2.472,2.472,0,0,0,2.362.108,4.153,4.153,0,0,0,2.15-4.071,8.24,8.24,0,0,0-4.3-6.973,8.484,8.484,0,0,0-5.677-.751,17.246,17.246,0,0,0-2.062.669,1.864,1.864,0,0,1,.479-.311,7.659,7.659,0,0,1,1.529-.587,8.49,8.49,0,0,1,5.927.6,8.636,8.636,0,0,1,4.658,7.342,5.979,5.979,0,0,1-.491,2.616,3.938,3.938,0,0,1-1.974,2.005,3.066,3.066,0,0,1-2.93-.146,3.612,3.612,0,0,1-1.509-2.607,4.775,4.775,0,0,1,.657-2.911,9.32,9.32,0,0,1,1.791-2.206,15,15,0,0,1,4.434-2.9,17.318,17.318,0,0,1,8.781-1.28,15.766,15.766,0,0,1,5.714,1.8,9.574,9.574,0,0,1,1.375.879A2.013,2.013,0,0,1,271.721,188.043Z" transform="translate(-242.843 -184.207)"/></g><g transform="translate(146.437 102.715)"><path class="l" d="M271.829,195.789a7.671,7.671,0,0,1-1.4,2.662c-.913,1.377-1.767,2.419-1.906,2.327a7.682,7.682,0,0,1,1.4-2.66C270.837,196.739,271.69,195.7,271.829,195.789Z" transform="translate(-268.501 -195.783)"/></g><g transform="translate(157.902 115.229)"><path class="l" d="M284.972,210.665c-.094.025-.256-.414-.658-1.013a6.022,6.022,0,0,0-4.713-2.623c-.721-.028-1.18.067-1.207-.027-.024-.063.406-.314,1.194-.4a5.3,5.3,0,0,1,5.1,2.837C285.024,210.154,285.038,210.651,284.972,210.665Z" transform="translate(-278.392 -206.578)"/></g><g transform="translate(100.443 113.4)"><path class="l" d="M244.98,205.007c.042.086-1.395.8-3.632,2.076a31.375,31.375,0,0,0-7.885,6.093,16.781,16.781,0,0,0-4.174,8.859,20.5,20.5,0,0,0,.065,4.133,3.4,3.4,0,0,1-.332-1.084,11,11,0,0,1-.158-3.093,16.25,16.25,0,0,1,4.147-9.215,28.385,28.385,0,0,1,8.132-6.067c1.152-.6,2.106-1.038,2.773-1.322A3.953,3.953,0,0,1,244.98,205.007Z" transform="translate(-228.824 -205.001)"/></g><g transform="translate(131.373 107.845)"><path class="l" d="M257.763,211.429c-.037.045-.648-.381-1.262-1.393a7.743,7.743,0,0,1,.721-8.657c.773-.9,1.448-1.216,1.477-1.165.065.085-.5.522-1.138,1.426a8.311,8.311,0,0,0-.683,8.194C257.357,210.833,257.842,211.356,257.763,211.429Z" transform="translate(-255.506 -200.209)"/></g><g transform="translate(70.324 94.904)"><path class="l" d="M239.525,192.205c-.028.022-.205-.261-.664-.671a4.826,4.826,0,0,0-2.415-1.072,6.026,6.026,0,0,0-4.043.844,12.3,12.3,0,0,0-3.838,4.051c-1.145,1.76-2.117,3.883-3.582,5.944a12.633,12.633,0,0,1-6.392,4.777,11.841,11.841,0,0,1-8.774-.51,12.551,12.551,0,0,1-6.452-6.879,7.48,7.48,0,0,1-.2-4.891,6.853,6.853,0,0,1,3.006-3.686,7.049,7.049,0,0,1,4.479-1.025,7.381,7.381,0,0,1,3.978,1.893,9.734,9.734,0,0,1,3.146,7.286,12.035,12.035,0,0,1-2.164,6.62,13.453,13.453,0,0,1-4.192,3.942,16.652,16.652,0,0,1-3.982,1.732,17.774,17.774,0,0,1-2.679.566c-.311.045-.548.061-.708.074a.752.752,0,0,1-.243,0,7.057,7.057,0,0,1,.932-.195,21.862,21.862,0,0,0,2.629-.671,17.041,17.041,0,0,0,3.873-1.794,13.235,13.235,0,0,0,4.016-3.893,11.657,11.657,0,0,0,2.018-6.385,9.242,9.242,0,0,0-3.016-6.869,6.837,6.837,0,0,0-3.676-1.735,6.481,6.481,0,0,0-4.1.959,6.274,6.274,0,0,0-2.744,3.369,6.9,6.9,0,0,0,.2,4.5,12.006,12.006,0,0,0,6.135,6.547,11.3,11.3,0,0,0,8.351.517,12.164,12.164,0,0,0,6.16-4.542c1.444-1.993,2.441-4.107,3.629-5.884a12.5,12.5,0,0,1,4.025-4.109,6.223,6.223,0,0,1,4.253-.785,4.764,4.764,0,0,1,2.458,1.215A2.926,2.926,0,0,1,239.525,192.205Z" transform="translate(-202.842 -189.045)"/></g><g transform="translate(102.137 101.628)"><path class="l" d="M235.543,209.344a5.632,5.632,0,0,1-1.87-1.479,12.772,12.772,0,0,1-3.209-10.757,5.621,5.621,0,0,1,.756-2.262c.1.034-.18.895-.333,2.321a14.166,14.166,0,0,0,3.107,10.417C234.9,208.693,235.608,209.262,235.543,209.344Z" transform="translate(-230.286 -194.846)"/></g><g transform="translate(70.642 75.698)"><path class="l" d="M244.136,186.18c-.031.061-.817-.389-2.329-.983a27.785,27.785,0,0,0-16.7-1.248,22.508,22.508,0,0,0-5.561,2.084,3.7,3.7,0,0,0-1.842,2.2,2.1,2.1,0,0,0,1.2,2.331,1.253,1.253,0,0,0,1.222-.367,3.05,3.05,0,0,0,.694-1.295,10.763,10.763,0,0,0,.265-3.08,13.928,13.928,0,0,0-1.483-5.689,13.313,13.313,0,0,0-3.272-4.207,13.024,13.024,0,0,0-4.039-2.322,14.076,14.076,0,0,0-6.718-.669c-1.6.255-2.44.607-2.46.547a2.757,2.757,0,0,1,.6-.27,11.53,11.53,0,0,1,1.82-.508,13.746,13.746,0,0,1,6.9.5,13.27,13.27,0,0,1,4.22,2.342,13.664,13.664,0,0,1,3.447,4.339,14.378,14.378,0,0,1,1.578,5.917,11.173,11.173,0,0,1-.281,3.271,3.615,3.615,0,0,1-.845,1.556,1.856,1.856,0,0,1-1.81.522,2.28,2.28,0,0,1-1.375-1.246,2.9,2.9,0,0,1-.252-1.782,4.253,4.253,0,0,1,2.124-2.592,22.582,22.582,0,0,1,5.74-2.12,27.511,27.511,0,0,1,10.267-.374,25.833,25.833,0,0,1,6.649,1.949,16.315,16.315,0,0,1,1.682.849A2.7,2.7,0,0,1,244.136,186.18Z" transform="translate(-203.117 -172.477)"/></g><g transform="translate(11.151 62.228)"><path class="l" d="M161.97,191.365c-.037-.05.719-.56,1.863-1.718a16.156,16.156,0,0,0,3.643-5.751,12.6,12.6,0,0,0-.292-9.809,12.413,12.413,0,0,0-3.7-4.567,10.422,10.422,0,0,0-5.838-2.191,6.726,6.726,0,0,0-3.067.641,3.878,3.878,0,0,0-2.04,2.068,2.983,2.983,0,0,0,.416,2.689,4.373,4.373,0,0,0,2.2,1.633,5.987,5.987,0,0,0,5.018-.852,8.495,8.495,0,0,0,3.044-3.454,17.443,17.443,0,0,0,1.45-6.659c.034-.762.06-1.384.081-1.88a2.75,2.75,0,0,1,.057-.658,2.7,2.7,0,0,1,.065.657c.02.431.041,1.068.032,1.89a16.78,16.78,0,0,1-1.3,6.835,8.862,8.862,0,0,1-3.155,3.689,6.481,6.481,0,0,1-5.461.963,4.923,4.923,0,0,1-2.505-1.836,3.569,3.569,0,0,1-.5-3.211,4.455,4.455,0,0,1,2.336-2.413,7.3,7.3,0,0,1,3.349-.7,10.952,10.952,0,0,1,6.177,2.324,12.875,12.875,0,0,1,3.845,4.8,12.116,12.116,0,0,1,1.144,5.447,14.071,14.071,0,0,1-.955,4.748A15.673,15.673,0,0,1,164,189.815a11.851,11.851,0,0,1-1.466,1.2A2.725,2.725,0,0,1,161.97,191.365Z" transform="translate(-151.796 -160.857)"/></g><g transform="translate(39.9 79.752)"><path class="l" d="M182.046,206.205a4.821,4.821,0,0,1-.908-.963,19.017,19.017,0,0,1-1.985-3.016,21.405,21.405,0,0,1,1.5-22.686,18.964,18.964,0,0,1,2.364-2.729,4.8,4.8,0,0,1,1.026-.836A48.285,48.285,0,0,0,181,179.782a22.016,22.016,0,0,0-1.466,22.249A48.309,48.309,0,0,0,182.046,206.205Z" transform="translate(-176.597 -175.973)"/></g><g transform="translate(42.904 67.862)"><path class="l" d="M204.29,182.626c-.11.038-.59-1.745-2.027-4.3a23.817,23.817,0,0,0-18.321-12.117c-2.917-.321-4.746-.066-4.753-.182a4.665,4.665,0,0,1,1.272-.219,20.138,20.138,0,0,1,3.522-.024,22.946,22.946,0,0,1,18.655,12.339,20.1,20.1,0,0,1,1.356,3.25A4.686,4.686,0,0,1,204.29,182.626Z" transform="translate(-179.188 -165.717)"/></g><g class="f" transform="translate(98.88 101.665)"><path d="M228.276,210.427c-1.1.473-1,2.24-.075,3a4.954,4.954,0,0,0,3.443.736,44.739,44.739,0,0,0,34.344-19.289c-10.48,8.6-24.226,11.845-37.447,14.843" transform="translate(-227.476 -194.877)"/></g><g class="f" transform="translate(97.062 68.43)"><path d="M226.457,203.165c-1.142-1.75-.373-4.2,1.1-5.686s3.483-2.264,5.358-3.189a33.858,33.858,0,0,0,15.62-16.039c2.105-4.565,3.7-10.167,8.368-12.044a45.271,45.271,0,0,1-29.8,35.543" transform="translate(-225.908 -166.207)"/></g><g class="f" transform="translate(60.738 45.285)"><path d="M198.537,146.241a117.754,117.754,0,0,1-2.669,37.887,32.465,32.465,0,0,0-1.294,7.982,10.609,10.609,0,0,0,3.856,7.5c1.925-4.432,1.96-8.708,2.771-13.486.731-4.306,1.954-14.352,1.958-14.5.17-8.794-1.906-16.323-5.283-24.243" transform="translate(-194.573 -146.241)"/></g><g class="f" transform="translate(85.914 7.031)"><path d="M216.93,113.439a46.208,46.208,0,0,0,13.119,24.617c2.564,2.5,5.751,4.806,9.328,4.691a21.832,21.832,0,0,1-1.79-13.664,56.626,56.626,0,0,0,9.547,5.193A18.982,18.982,0,0,0,257.8,135.49q1.115-9.631,2.228-19.265a3.566,3.566,0,0,0-.2-2.151c-.358-.64-1.334-.971-1.837-.438a1.776,1.776,0,0,0-.361.844c-1.306,5.629-2.032,10.666-3.34,16.294-.937.93-3.825.546-5.727-.155-1.656-.611-2.292-1.982-3.388-3.365s-.9-1.141-2.527-1.83c-2.985-1.268-8.725-.258-9.976,2.426s-.3,6.216.529,8.851a40.163,40.163,0,0,1-16.911-23.458" transform="translate(-216.291 -113.241)"/></g><g class="f" transform="translate(147.322 34.417)"><path d="M271.707,136.865c-.233.467,7.218,25.6,7.218,25.6l-9.661-5.506Z" transform="translate(-269.265 -136.865)"/></g></g></g><g transform="translate(109.71)"><g transform="translate(4.54 4.501)"><path class="g" d="M219.607,76.824v40.013a9.7,9.7,0,0,0,2.28,6.248h0a29.3,29.3,0,0,0,8.034,6.655l8.072,4.545,6.676-5.96a9.712,9.712,0,0,0,3.233-6.86c.115-2.915.115-5.852.115-5.852s11.312-.813,12.373-11.967c.5-5.252.658-16.009.686-25.922A21.7,21.7,0,0,0,241.164,56.05l-.319-.027A20.735,20.735,0,0,0,219.607,76.824Z" transform="translate(-219.607 -56.017)"/><g transform="translate(14.227 54.095)"><path class="h" d="M246.063,108.184a27.063,27.063,0,0,1-14.183-5.5s2.927,8.463,14.152,8.38Z" transform="translate(-231.88 -102.682)"/></g></g><g transform="translate(19.371 21.362)"><g transform="translate(0.599 6.323)"><g transform="translate(16.893 1.076)"><g transform="translate(2.647 3.043)"><path class="j" d="M252.971,81.145a1.6,1.6,0,0,1-1.67,1.481,1.53,1.53,0,0,1-1.524-1.574,1.6,1.6,0,0,1,1.668-1.483A1.531,1.531,0,0,1,252.971,81.145Z" transform="translate(-249.775 -79.569)"/></g><path class="j" d="M253.787,78.894c-.216.191-1.349-.8-3.066-.94-1.712-.162-3.044.617-3.213.391-.083-.1.15-.459.73-.813a4.388,4.388,0,0,1,2.594-.57,4.217,4.217,0,0,1,2.418,1.007C253.744,78.417,253.891,78.808,253.787,78.894Z" transform="translate(-247.491 -76.945)"/></g><g transform="translate(3.356 3.305)"><path class="j" d="M239.009,80.443a1.6,1.6,0,0,1-1.67,1.481,1.53,1.53,0,0,1-1.524-1.574,1.6,1.6,0,0,1,1.669-1.483A1.532,1.532,0,0,1,239.009,80.443Z" transform="translate(-235.813 -78.867)"/></g><path class="j" d="M239.214,77.966c-.216.191-1.35-.8-3.066-.94-1.712-.162-3.044.617-3.213.391-.083-.1.147-.459.73-.813a4.386,4.386,0,0,1,2.593-.57,4.221,4.221,0,0,1,2.419,1.007C239.17,77.489,239.318,77.88,239.214,77.966Z" transform="translate(-232.918 -76.017)"/><g transform="translate(11.47 0.828)"><path class="j" d="M242.812,91.093a11.357,11.357,0,0,1,2.828-.272c.443-.009.864-.061.963-.355a2.242,2.242,0,0,0-.185-1.323q-.487-1.641-1.02-3.444c-1.406-4.9-2.385-8.913-2.187-8.968s1.5,3.872,2.9,8.771q.5,1.81.963,3.459a2.548,2.548,0,0,1,.085,1.739,1.1,1.1,0,0,1-.773.581,3,3,0,0,1-.754.042A11.229,11.229,0,0,1,242.812,91.093Z" transform="translate(-242.812 -76.73)"/></g><g transform="translate(5.956 15.957)"><path class="j" d="M238.421,89.783c.281.007.13,1.87,1.615,3.323s3.485,1.413,3.478,1.675c.016.119-.472.325-1.312.278a4.655,4.655,0,0,1-2.912-1.293,4.051,4.051,0,0,1-1.233-2.776C238.049,90.206,238.295,89.762,238.421,89.783Z" transform="translate(-238.056 -89.782)"/></g></g><path class="j" d="M240.3,72.146c-.208.453-1.9.09-3.936.166-2.036.035-3.707.49-3.94.05-.1-.21.217-.626.911-1.024a6.856,6.856,0,0,1,6-.163C240.045,71.533,240.387,71.931,240.3,72.146Z" transform="translate(-232.401 -70.562)"/><g transform="translate(17.75 2.29)"><path class="j" d="M253.531,74.577c-.334.364-1.483-.138-2.9-.275-1.414-.187-2.646.045-2.89-.386-.1-.208.117-.583.673-.908a4.222,4.222,0,0,1,4.667.532C253.548,73.982,253.681,74.4,253.531,74.577Z" transform="translate(-247.713 -72.537)"/></g></g><g transform="translate(2.797 6.659)"><path class="j" d="M232.983,65.287l-.065.044a8.812,8.812,0,0,0-3.735,5.409l-.05.223c-.7,3.148-.889,6.4-1.621,9.537s-.6,5.542-3.743,6.25a4.188,4.188,0,0,1-4.381-1.779,2.723,2.723,0,0,1-.277-1.493c.041-7.739-1.515-10.745-.836-18.785a6.8,6.8,0,0,1,3.27-5.285c1.784-1.066,3.942-2.148,5.74-1.107s3.931,4.743,5.259,6.348" transform="translate(-218.104 -57.878)"/></g><g transform="translate(0 30.09)"><path class="g" d="M223.577,78.673c-.184-.1-7.485-2.9-7.872,4.749s7.376,6.465,7.4,6.246S223.577,78.673,223.577,78.673Z" transform="translate(-215.691 -78.091)"/><g transform="translate(1.946 2.429)"><path class="h" d="M220.647,86.317c-.032-.027-.139.086-.369.179a1.338,1.338,0,0,1-1-.03c-.794-.338-1.41-1.657-1.376-3.038a4.4,4.4,0,0,1,.469-1.89,1.541,1.541,0,0,1,1.055-.973.681.681,0,0,1,.769.406c.092.219.035.369.075.384.02.021.17-.119.125-.438a.849.849,0,0,0-.277-.495,1.009,1.009,0,0,0-.728-.233A1.877,1.877,0,0,0,217.94,81.3a4.519,4.519,0,0,0-.57,2.11c-.029,1.545.687,3.028,1.777,3.4a1.432,1.432,0,0,0,1.23-.141C220.624,86.5,220.673,86.332,220.647,86.317Z" transform="translate(-217.369 -80.186)"/></g></g><g transform="translate(11.078)"><path class="j" d="M225.793,60.375c-1.626-3.21,3.886-7.169,7.752-8.045s8.677,1.371,12.324,2.925c2.3.981,4.567,2.271,7.067,2.374a16.891,16.891,0,0,0,4.941-.832,12.4,12.4,0,0,1,4.964-.56,4.623,4.623,0,0,1,3.807,2.879c.5,1.6-.577,3.645-2.252,3.737a3.761,3.761,0,1,1,.424,7.031c1.155-.733,2.706.764,2.46,2.107a3.961,3.961,0,0,1-2.849,2.673c-3.3,1.135-6.974.381-10.177-1s-6.116-3.362-9.284-4.823-8.462-4.05-11.838-3.166c-2.484.651-4.405,3.421-5.715,2.666a4.687,4.687,0,0,1-2.132-3.633,13.529,13.529,0,0,1,.51-4.333" transform="translate(-225.248 -52.133)"/></g><g transform="translate(13.312 2.141)"><path class="k" d="M265.026,62.425c-.06-.043-.439.533-1.333,1.356a10.571,10.571,0,0,1-4.468,2.379,9.7,9.7,0,0,1-7.256-.9c-2.5-1.377-4.53-3.888-6.905-6.293a15.891,15.891,0,0,0-8.239-4.832,8.826,8.826,0,0,0-7.509,1.923,6.689,6.689,0,0,0-2.141,4.791,5.219,5.219,0,0,0,.213,1.43c.112.312.187.467.211.458a12.381,12.381,0,0,1-.129-1.879,6.588,6.588,0,0,1,2.2-4.4,8.372,8.372,0,0,1,7.024-1.633,15.5,15.5,0,0,1,7.83,4.681c2.331,2.352,4.424,4.931,7.1,6.369A10.418,10.418,0,0,0,263.9,63.992a7.2,7.2,0,0,0,.894-1.123C264.968,62.591,265.048,62.44,265.026,62.425Z" transform="translate(-227.175 -53.98)"/></g><g transform="translate(4.589 10.583)"><path class="k" d="M221.031,80.858c.026.028.345-.183.684-.765a5.141,5.141,0,0,0,.61-2.736c.035-2.473-1.921-5.293-1.916-8.714a7.7,7.7,0,0,1,1.222-4.486,5.85,5.85,0,0,1,3.039-2.216,4.99,4.99,0,0,1,2.577-.136c.605.148.924.319.958.26.02-.029-.248-.292-.872-.541a4.768,4.768,0,0,0-2.806-.1,6.177,6.177,0,0,0-3.466,2.329,8.127,8.127,0,0,0-1.408,4.9,13.917,13.917,0,0,0,1.073,4.932,14.533,14.533,0,0,1,1.065,3.8A5.9,5.9,0,0,1,221.031,80.858Z" transform="translate(-219.65 -61.263)"/></g></g></g><g transform="translate(88.999 171.718)"><g transform="translate(0 41.108)"><g transform="translate(25.323 96.26)"><path class="c" d="M271.014,268.883s-.584.026-1.725.044l-5.061.071c-4.449.071-11.01.24-19.45.655-8.438.438-18.755,1.181-30.68,2.543-5.957.716-12.324,1.534-19.035,2.649-6.719,1.075-13.79,2.411-21.152,4.089s-15.022,3.676-22.856,6.232a152.858,152.858,0,0,0-23.7,9.779,77.392,77.392,0,0,0-11.367,7.26,36.281,36.281,0,0,0-9.306,10.181c-.283.511-.587,1.014-.853,1.536l-.656,1.634-.329.82c-.09.279-.144.57-.217.855l-.414,1.721a17.273,17.273,0,0,0,.348,7.074c1.134,4.7,4.236,8.749,7.79,12.155,7.264,6.822,16.527,11.57,26.132,15.552a214.268,214.268,0,0,0,30.448,9.631c21.11,5.145,43.487,8.171,66.463,9.787a527.625,527.625,0,0,0,67.247.264,423.146,423.146,0,0,0,62.083-8.1,262.984,262.984,0,0,0,28.149-7.593,139.947,139.947,0,0,0,25.161-10.962,68.822,68.822,0,0,0,10.608-7.556,30.684,30.684,0,0,0,7.682-9.779l.569-1.414a7.386,7.386,0,0,0,.491-1.432l.354-1.465c.053-.245.13-.486.165-.731l.059-.747a14.6,14.6,0,0,0-.436-5.847,20.731,20.731,0,0,0-2.451-5.234,32.1,32.1,0,0,0-3.59-4.409A54.163,54.163,0,0,0,423,301.155,89.779,89.779,0,0,0,414,295.793a155.785,155.785,0,0,0-17.535-7.8,263.89,263.89,0,0,0-29.4-9.064c-8.2-2.048-14.633-3.339-19-4.174-2.182-.436-3.854-.715-4.974-.928s-1.694-.329-1.694-.329,2.313.34,6.69,1.138,10.825,2.051,19.035,4.066a260.561,260.561,0,0,1,29.459,8.975,155.715,155.715,0,0,1,17.595,7.782,89.927,89.927,0,0,1,9.043,5.366,54.452,54.452,0,0,1,8.564,7.033,32.425,32.425,0,0,1,3.647,4.465,21.142,21.142,0,0,1,2.516,5.35,15.09,15.09,0,0,1,.46,6.02l-.061.766c-.036.254-.112.5-.167.751l-.361,1.5a7.7,7.7,0,0,1-.5,1.466l-.582,1.449a31.135,31.135,0,0,1-7.781,9.943,69.262,69.262,0,0,1-10.679,7.628,140.319,140.319,0,0,1-25.244,11.032,262.853,262.853,0,0,1-28.2,7.633,422.5,422.5,0,0,1-62.163,8.147,526.866,526.866,0,0,1-67.324-.252c-23.006-1.618-45.411-4.653-66.563-9.815a214.593,214.593,0,0,1-30.527-9.672c-9.641-4.006-18.946-8.772-26.3-15.683-3.6-3.454-6.763-7.579-7.932-12.424a17.8,17.8,0,0,1-.35-7.3l.427-1.774c.077-.293.131-.592.225-.88l.337-.84.676-1.677c.274-.533.584-1.048.874-1.571a36.815,36.815,0,0,1,9.448-10.324,78.014,78.014,0,0,1,11.451-7.3,153.225,153.225,0,0,1,23.793-9.779c7.855-2.55,15.532-4.543,22.907-6.205s14.457-2.991,21.185-4.051c6.721-1.1,13.094-1.9,19.059-2.6,11.938-1.332,22.263-2.04,30.706-2.444,8.446-.378,15.009-.51,19.46-.541l5.063-.01C270.43,268.867,271.014,268.883,271.014,268.883Z" transform="translate(-103.47 -268.866)"/></g><path class="c" d="M179.761,194.274s-.658.147-1.95.4-3.216.619-5.728,1.158c-5.026,1.047-12.434,2.658-21.842,5.229a224.157,224.157,0,0,0-33.463,11.829c-3.144,1.444-6.359,3.027-9.573,4.852a89.752,89.752,0,0,0-9.609,6.164,52.845,52.845,0,0,0-8.87,8.153,27.941,27.941,0,0,0-6.014,11.026,20.25,20.25,0,0,0,.954,12.982A33.555,33.555,0,0,0,91.692,267.3c6.86,6.582,15.569,11.567,24.836,15.856,18.67,8.484,39.994,14.173,62.623,18.42a525.4,525.4,0,0,0,71.843,7.924,619.1,619.1,0,0,0,77.6-1.383c26.51-2.208,52.3-6.1,76.566-12.475a229.554,229.554,0,0,0,34.873-11.974,119.261,119.261,0,0,0,15.755-8.41,59.967,59.967,0,0,0,13.273-11.2c3.7-4.322,6.423-9.626,6.581-15.215a13.154,13.154,0,0,0-.072-2.072,13.632,13.632,0,0,0-.219-2.053L474.9,242.7a13.878,13.878,0,0,0-.661-1.945,29.024,29.024,0,0,0-3.977-7.108A54.552,54.552,0,0,0,458.5,222.787a106.57,106.57,0,0,0-13.461-7.868,190.239,190.239,0,0,0-27.57-10.822c-9.08-2.841-17.94-5.092-26.45-6.977-34.118-7.36-62.4-9.361-81.851-10.441-9.743-.505-17.319-.526-22.453-.657l-5.841-.128c-1.316-.031-1.99-.064-1.99-.064s.675-.009,1.99,0l5.842.068c5.135.09,12.714.074,22.462.544A503.852,503.852,0,0,1,391.115,196.7c8.523,1.873,17.4,4.115,26.5,6.951a190.476,190.476,0,0,1,27.653,10.818,107.1,107.1,0,0,1,13.535,7.894,55.008,55.008,0,0,1,11.884,10.964,29.534,29.534,0,0,1,4.058,7.24,14.184,14.184,0,0,1,.677,1.992l.465,2.063a14.066,14.066,0,0,1,.228,2.109,13.6,13.6,0,0,1,.074,2.128,21.566,21.566,0,0,1-2.01,8.293,30.76,30.76,0,0,1-4.69,7.26A60.491,60.491,0,0,1,456.1,275.73a119.9,119.9,0,0,1-15.826,8.46,229.889,229.889,0,0,1-34.958,12.019C381,302.6,355.184,306.5,328.645,308.714a618.049,618.049,0,0,1-77.678,1.372,524.986,524.986,0,0,1-71.919-7.968c-22.657-4.269-44.008-9.982-62.73-18.511-9.295-4.315-18.036-9.326-24.952-15.976a34.029,34.029,0,0,1-8.116-11.389,20.691,20.691,0,0,1-.953-13.257A28.334,28.334,0,0,1,88.417,231.8a53.226,53.226,0,0,1,8.95-8.2,90.321,90.321,0,0,1,9.661-6.17c3.228-1.825,6.456-3.4,9.61-4.844a222.7,222.7,0,0,1,33.541-11.749c9.426-2.538,16.843-4.113,21.88-5.121S179.761,194.274,179.761,194.274Z" transform="translate(-81.624 -185.827)"/><g transform="translate(55.913 179.5)"><path class="c" d="M212.716,344.554l-5.781.912c-3.788.607-9.37,1.567-16.49,3.124a210.167,210.167,0,0,0-25.539,7.2,118.916,118.916,0,0,0-15.185,6.6,66.337,66.337,0,0,0-7.706,4.711,40.159,40.159,0,0,0-7.084,6.307,23.074,23.074,0,0,0-2.8,4.033,15.89,15.89,0,0,0-1.728,4.688c-.065.417-.163.831-.2,1.253l-.074,1.275c.008.852.108,1.709.185,2.565a25.406,25.406,0,0,0,.665,2.514l.49,1.218.246.611.326.576a28.647,28.647,0,0,0,6.966,8.2,57.327,57.327,0,0,0,9.34,6.268A123.334,123.334,0,0,0,170.2,415.73a227.171,227.171,0,0,0,24.368,6.23,363.234,363.234,0,0,0,53.618,6.408,436.668,436.668,0,0,0,57.98-1.01c19.8-1.713,39.063-4.746,57.109-9.842a143.9,143.9,0,0,0,25.731-9.8,64.326,64.326,0,0,0,11.192-7.231c.886-.656,1.628-1.469,2.444-2.194.8-.744,1.475-1.6,2.215-2.393a21.315,21.315,0,0,0,3.3-5.512,14.77,14.77,0,0,0-.511-12.223,29.345,29.345,0,0,0-7.984-9.3c-6.384-5.077-13.637-8.495-20.72-11.339a174.718,174.718,0,0,0-21.092-6.755c-6.885-1.778-13.57-3.176-19.986-4.3a395.614,395.614,0,0,0-61.4-5.618l-22.638-.125s8.06-.1,22.639-.016a391.887,391.887,0,0,1,61.446,5.506c6.422,1.12,13.115,2.512,20.011,4.284a174.806,174.806,0,0,1,21.131,6.747c7.1,2.847,14.378,6.263,20.809,11.371a29.639,29.639,0,0,1,8.077,9.4,15.111,15.111,0,0,1,.529,12.489,21.643,21.643,0,0,1-3.347,5.6c-.748.8-1.433,1.668-2.238,2.42-.822.733-1.573,1.555-2.463,2.215a64.548,64.548,0,0,1-11.251,7.275,143.968,143.968,0,0,1-25.792,9.838c-18.074,5.11-37.357,8.147-57.176,9.863a436.389,436.389,0,0,1-58.028,1,362.8,362.8,0,0,1-53.667-6.436,227.061,227.061,0,0,1-24.4-6.253,123.717,123.717,0,0,1-21.9-9.165,57.674,57.674,0,0,1-9.38-6.308,28.922,28.922,0,0,1-7.026-8.29l-.329-.584-.25-.621-.5-1.239a25.672,25.672,0,0,1-.674-2.56c-.079-.873-.18-1.748-.187-2.615l.078-1.3c.042-.43.141-.851.21-1.276a16.154,16.154,0,0,1,1.76-4.761,23.291,23.291,0,0,1,2.832-4.073,40.357,40.357,0,0,1,7.137-6.34,66.5,66.5,0,0,1,7.74-4.717,119.1,119.1,0,0,1,15.224-6.584,208.367,208.367,0,0,1,25.577-7.147c7.128-1.537,12.715-2.475,16.508-3.059S212.716,344.554,212.716,344.554Z" transform="translate(-129.858 -340.673)"/></g><g transform="translate(95.475 258.534)"><path class="c" d="M358.652,439.7a11.886,11.886,0,0,0-.962-4.223c-1.078-2.658-3.954-5.962-8.488-8.951-9.11-6-24.334-11.03-43.5-14.109a265.171,265.171,0,0,0-31.626-3.1,303.89,303.89,0,0,0-36.464.671c-6.406.507-12.954,1.246-19.6,2.3a187.239,187.239,0,0,0-20.129,4.246c-3.374.909-6.743,1.96-10.077,3.186a80.963,80.963,0,0,0-9.837,4.288,39.737,39.737,0,0,0-8.916,6.171c-2.631,2.459-4.776,5.788-4.828,9.507.044,3.721,2.186,7.054,4.817,9.516a39.733,39.733,0,0,0,8.915,6.176,80.99,80.99,0,0,0,9.838,4.29c3.335,1.226,6.7,2.278,10.079,3.188a187.111,187.111,0,0,0,20.133,4.246c6.643,1.057,13.193,1.8,19.6,2.3a303.7,303.7,0,0,0,36.469.67,264.969,264.969,0,0,0,31.627-3.1c19.168-3.079,34.39-8.115,43.5-14.11,4.533-2.988,7.409-6.292,8.485-8.95a11.878,11.878,0,0,0,.962-4.222c-.013.175-.032.469-.076,1.107a6.092,6.092,0,0,1-.24,1.344,8.8,8.8,0,0,1-.6,1.791c-1.068,2.675-3.944,6-8.478,9.009-9.114,6.033-24.346,11.1-43.525,14.2a264.2,264.2,0,0,1-31.645,3.13,303.528,303.528,0,0,1-36.5-.649c-6.41-.5-12.966-1.242-19.617-2.3a187.134,187.134,0,0,1-20.16-4.247c-3.379-.91-6.756-1.963-10.1-3.191a81.155,81.155,0,0,1-9.868-4.3,39.949,39.949,0,0,1-8.971-6.214,17.574,17.574,0,0,1-3.417-4.341,10.415,10.415,0,0,1,.009-10.693,17.542,17.542,0,0,1,3.421-4.337,39.966,39.966,0,0,1,8.971-6.21,81.391,81.391,0,0,1,9.866-4.3c3.342-1.228,6.718-2.279,10.1-3.189a187.024,187.024,0,0,1,20.155-4.245c6.649-1.055,13.2-1.792,19.614-2.3a303.433,303.433,0,0,1,36.491-.649,264.258,264.258,0,0,1,31.645,3.129c19.178,3.1,34.412,8.167,43.527,14.2,4.535,3.007,7.412,6.334,8.48,9.009a8.829,8.829,0,0,1,.6,1.791,6.113,6.113,0,0,1,.24,1.345C358.62,439.234,358.64,439.528,358.652,439.7Z" transform="translate(-163.986 -408.852)"/></g><g transform="translate(26.628 105.889)"><path class="c" d="M112,280.874a3.7,3.7,0,1,1-3.7-3.7A3.7,3.7,0,0,1,112,280.874Z" transform="translate(-104.595 -277.173)"/></g><g transform="translate(361.335 108.397)"><g transform="translate(0)"><circle class="c" cx="3.701" cy="3.701" r="3.701"/></g></g><g transform="translate(210.384 244.768)"><path class="c" d="M270.515,400.678a3.7,3.7,0,1,1-3.7-3.7A3.7,3.7,0,0,1,270.515,400.678Z" transform="translate(-263.113 -396.977)"/></g><g transform="translate(101.698 151.511)"><path class="c" d="M173.055,318.379a1.85,1.85,0,1,1-1.85-1.85A1.849,1.849,0,0,1,173.055,318.379Z" transform="translate(-169.355 -316.529)"/></g><g transform="translate(331.818 196.357)"><path class="c" d="M371.569,357.065a1.85,1.85,0,1,1-1.85-1.85A1.849,1.849,0,0,1,371.569,357.065Z" transform="translate(-367.869 -355.215)"/></g><g transform="translate(185.738 281.941)"><path class="c" d="M245.553,430.9a1.851,1.851,0,1,1-1.85-1.85A1.85,1.85,0,0,1,245.553,430.9Z" transform="translate(-241.852 -429.045)"/></g></g><g transform="translate(91.921 0)"><circle class="c" cx="0.93" cy="0.93" r="0.93"/></g></g><g transform="translate(76.265 154.954)"><g transform="translate(131.433 71.7)"><path class="c" d="M325.01,286.1c-44.944,11.9-88.264,11-135.478,0L184.02,199.8c48.788,9.5,97.766,8.3,140.99-2.041Z" transform="translate(-184.02 -197.756)"/><g class="d"><path class="e" d="M325.01,286.1c-44.944,11.9-88.264,11-135.478,0L184.02,199.8c48.788,9.5,97.766,8.3,140.99-2.041Z" transform="translate(-184.02 -197.756)"/></g><g transform="translate(14.404 75.222)"><path class="c" d="M316.066,262.648a1.289,1.289,0,0,1-.282.141l-.849.361c-.752.3-1.845.786-3.3,1.3a124.089,124.089,0,0,1-12.437,3.9,162.53,162.53,0,0,1-42.64,4.864,248.826,248.826,0,0,1-42.729-4.572c-5.407-1.026-9.756-1.975-12.752-2.671-1.5-.34-2.658-.633-3.445-.827l-.891-.232a.158.158,0,1,1,.014-.059l.905.173,3.467.715c3.01.625,7.37,1.509,12.78,2.481a262.422,262.422,0,0,0,42.658,4.388,167.927,167.927,0,0,0,42.528-4.674c5.325-1.338,9.567-2.686,12.463-3.711,1.459-.482,2.565-.935,3.332-1.2.355-.124.641-.224.869-.3A1.166,1.166,0,0,1,316.066,262.648Z" transform="translate(-196.446 -262.646)"/></g><g transform="translate(50.688 46.574)"><path class="c" d="M245.052,270.1c-5.64,1.665-11.425,1.225-17.306-.58V238.8a43.452,43.452,0,0,1,17.306,0Z" transform="translate(-227.746 -237.933)"/></g><g transform="translate(77.082 29.938)"><path class="c" d="M269.358,270.558a1.161,1.161,0,0,1-.024-.236c-.007-.18-.016-.4-.028-.669q-.026-.937-.07-2.564c-.045-2.269-.11-5.5-.19-9.539-.123-8.152-.294-19.559-.493-32.785l.231.279a46.4,46.4,0,0,0-17.909.014l.246-.3.007.61c.184,18.154.35,34.551.468,46.26l-.168-.2a40.415,40.415,0,0,0,7.542.918,27.768,27.768,0,0,0,5.7-.464,28.251,28.251,0,0,0,3.5-.918l.875-.306a2.111,2.111,0,0,1,.321-.1,1.345,1.345,0,0,1-.276.138l-.88.377a24.359,24.359,0,0,1-3.489,1.032,27.1,27.1,0,0,1-5.746.57,39.962,39.962,0,0,1-7.623-.839l-.166-.032,0-.17c-.165-11.708-.4-28.1-.65-46.257l-.008-.611,0-.253.248-.048a46.668,46.668,0,0,1,18.136.014l.23.048,0,.232c.1,13.287.185,24.748.247,32.938.01,4.02.019,7.235.026,9.493q-.009,1.6-.013,2.519c-.006.259-.01.468-.014.642A.751.751,0,0,1,269.358,270.558Z" transform="translate(-250.515 -223.582)"/></g><g transform="translate(105.215 23.997)"><path class="c" d="M292.09,267.757c-4.635,2.509-10.731,2.841-17.306,2.463V219.486a36.954,36.954,0,0,1,17.306,0Z" transform="translate(-274.784 -218.457)"/></g><g transform="translate(23.403 55.692)"><path class="c" d="M221.324,266.336a12.43,12.43,0,0,1-.059-1.3c-.017-.893-.041-2.077-.068-3.546-.034-3.088-.08-7.362-.134-12.459l.169.245c-4.633-1.7-10.434-3.314-16.66-2.766l-.03,0,.274-.3c-.015,6.332-.03,12.261-.042,17.306l-.16-.24a32.319,32.319,0,0,0,6.681,1.906c2.046.369,3.851.581,5.34.728l3.464.294c.76.063,1.206.116,1.226.131a8.737,8.737,0,0,1-1.235.029c-.8-.016-1.982-.049-3.481-.151s-3.318-.275-5.388-.611a31.754,31.754,0,0,1-6.809-1.847l-.159-.065v-.175c-.012-5.045-.025-10.974-.041-17.306v-.279l.275-.021.031,0c6.374-.558,12.247,1.119,16.9,2.878l.172.065,0,.18c-.054,5.167-.1,9.5-.134,12.63-.028,1.443-.051,2.608-.068,3.486A9.294,9.294,0,0,1,221.324,266.336Z" transform="translate(-204.209 -245.799)"/></g><g transform="translate(20.119 22.959)"><g transform="translate(5.496 6.992)"><path class="c" d="M229.16,224.98a17.271,17.271,0,0,1-3.385.209c-2.094.034-4.987-.009-8.176-.2s-6.07-.486-8.145-.764a17.386,17.386,0,0,1-3.337-.6,20.909,20.909,0,0,1,3.383.178c2.081.17,4.956.4,8.134.587s6.059.3,8.146.372A21.035,21.035,0,0,1,229.16,224.98Z" transform="translate(-206.117 -223.593)"/></g><g transform="translate(5.76 10.55)"><path class="c" d="M226.545,228.269a14.444,14.444,0,0,1-2.97-.014c-1.833-.086-4.362-.246-7.152-.459s-5.317-.442-7.141-.636a14.533,14.533,0,0,1-2.937-.439,14.574,14.574,0,0,1,2.979.014c1.832.086,4.357.246,7.144.459s5.307.442,7.13.635A14.64,14.64,0,0,1,226.545,228.269Z" transform="translate(-206.345 -226.663)"/></g><path class="c" d="M233.668,234.667a10.2,10.2,0,0,1,.014-1.077q.043-1.109.118-2.99c.124-2.62.3-6.306.511-10.833l.221.232a247.761,247.761,0,0,1-32.027-1.776c-.3.253.408-.343.335-.281v.028l0,.03,0,.061-.007.123-.014.245-.029.489-.057.975q-.056.972-.112,1.932-.113,1.921-.223,3.792c-.148,2.489-.292,4.9-.43,7.209l-.252-.3c9.261,1.141,17.263,1.625,22.936,1.843l6.638.2,1.747.054a5.358,5.358,0,0,1,.636.042,3.629,3.629,0,0,1-.587.043c-.4.016-1.021.043-1.8.051-1.546.023-3.806.026-6.648-.035-5.682-.119-13.707-.527-22.993-1.631l-.267-.031.015-.269c.13-2.308.267-4.721.407-7.211q.106-1.869.217-3.792l.111-1.932.056-.975.029-.489.014-.245.007-.123,0-.061,0-.031v-.027c-.073.06.64-.537.34-.284a271.814,271.814,0,0,0,31.953,1.936h.236l-.016.234c-.314,4.575-.569,8.3-.751,10.949q-.143,1.847-.226,2.935A7.64,7.64,0,0,1,233.668,234.667Z" transform="translate(-201.376 -217.562)"/></g><g transform="translate(52.393 40.061)"><path class="c" d="M233.183,238.827a13.821,13.821,0,0,1-2.229-3.094,10.983,10.983,0,0,1-1.718-3.415,13.853,13.853,0,0,1,2.229,3.1A11.033,11.033,0,0,1,233.183,238.827Z" transform="translate(-229.217 -232.315)"/></g></g><g transform="translate(0 5.886)"><path class="c" d="M70.639,140.982l14.693,88.881s22.423,41.99,82.013,51.454l-9.616-79.342S102.624,184.934,70.639,140.982Z" transform="translate(-70.639 -140.982)"/><g class="d"><path class="e" d="M70.639,140.982l14.693,88.881s22.423,41.99,82.013,51.454l-9.616-79.342S102.624,184.934,70.639,140.982Z" transform="translate(-70.639 -140.982)"/></g><g transform="translate(7.683 23.986)"><path class="c" d="M158.6,271.688a1.789,1.789,0,0,1-.379-.088l-1.1-.318-4.2-1.28c-1.814-.583-4.077-1.18-6.588-2.2l-4.055-1.545c-1.44-.539-2.961-1.109-4.5-1.851-3.1-1.421-6.547-2.881-10.049-4.85-3.588-1.8-7.227-4.086-11.032-6.51a110.879,110.879,0,0,1-22.142-19.188,66.314,66.314,0,0,1-7.987-11.143l-.021-.037-.007-.051c-2.681-17.32-5.037-32.537-6.728-43.467-.814-5.423-1.469-9.78-1.925-12.823-.21-1.475-.373-2.629-.492-3.453l-.114-.9a1.307,1.307,0,0,1-.02-.307,1.432,1.432,0,0,1,.074.3l.167.887L78.1,166.3c.5,3.036,1.213,7.384,2.1,12.8,1.742,10.922,4.169,26.127,6.931,43.436l-.029-.087a66.345,66.345,0,0,0,7.914,11.015,111.666,111.666,0,0,0,21.995,19.121c3.779,2.426,7.393,4.715,10.959,6.531,3.478,1.982,6.9,3.459,9.984,4.9,1.528.751,3.039,1.334,4.47,1.886l4.031,1.585c2.493,1.053,4.741,1.681,6.543,2.3l4.162,1.385,1.079.376A2.067,2.067,0,0,1,158.6,271.688Z" transform="translate(-77.267 -161.674)"/></g><g transform="translate(12.848 43.684)"><path class="c" d="M152.656,243.183a1.147,1.147,0,0,1-.2.185l-.631.508-2.477,1.929-9.359,7.169-.147.112-.11-.152L128.281,237.1l.35.059-8.775,6.249-.293.208-.124-.337c-3.425-9.29-7.266-19.708-11.314-30.684q-.817-2.226-1.624-4.418l.553.031-7.148,14.188-.31.616-.226-.65L84.441,179.32l.316-.017c-.938,3.954-1.68,7.08-2.2,9.257q-.384,1.56-.6,2.439l-.165.622a.843.843,0,0,1-.071.209.753.753,0,0,1,.027-.218l.122-.633q.188-.887.518-2.459c.481-2.184,1.171-5.322,2.045-9.292l.123-.562.192.545c3.483,9.864,8.852,25.068,15.168,42.957l-.536-.035,7.129-14.2.312-.621.24.653q.807,2.189,1.625,4.417c4.029,10.984,7.852,21.408,11.263,30.7l-.416-.129,8.8-6.212.205-.145.145.2,11.334,15.917-.257-.039,9.46-7.034,2.535-1.854.661-.467A1.192,1.192,0,0,1,152.656,243.183Z" transform="translate(-81.723 -178.666)"/></g><g transform="translate(52.207 52.24)"><path class="c" d="M145.2,199.38a5.242,5.242,0,0,1-1.251-.279c-.794-.214-1.932-.563-3.329-1.026a114.2,114.2,0,0,1-20.932-9.451c-1.27-.742-2.285-1.366-2.971-1.82a5.239,5.239,0,0,1-1.036-.752,5.233,5.233,0,0,1,1.156.551q1.257.678,3.059,1.65c2.586,1.385,6.193,3.233,10.269,5.076s7.848,3.322,10.6,4.345l3.261,1.2A5.277,5.277,0,0,1,145.2,199.38Z" transform="translate(-115.675 -186.047)"/></g><g transform="translate(65.41 62.57)"><path class="c" d="M145.749,201.649a12.343,12.343,0,0,1-2.878-.509,67.1,67.1,0,0,1-13.257-4.741,12.312,12.312,0,0,1-2.548-1.432,16.249,16.249,0,0,1,2.723,1.042c1.658.69,3.956,1.618,6.532,2.541s4.942,1.659,6.661,2.177A16.281,16.281,0,0,1,145.749,201.649Z" transform="translate(-127.065 -194.958)"/></g><g transform="translate(58.613 100.807)"><path class="c" d="M123.2,229.275c0,.736-.446,1.332-1,1.332s-1-.6-1-1.332.447-1.331,1-1.331S123.2,228.54,123.2,229.275Z" transform="translate(-121.202 -227.944)"/></g><g transform="translate(36.815 72.71)"><ellipse class="c" cx="0.999" cy="1.332" rx="0.999" ry="1.332"/></g><g transform="translate(14.801 43.388)"><path class="c" d="M85.405,179.743c0,.735-.447,1.331-1,1.331s-1-.6-1-1.331.447-1.332,1-1.332S85.405,179.007,85.405,179.743Z" transform="translate(-83.407 -178.411)"/></g></g><g transform="translate(300.686)"><g transform="translate(0 21.721)"><path class="c" d="M418.067,154.642l-7.363,90.3s-21.491,38.617-80.677,40.087l7.315-90.917S388.972,192.017,418.067,154.642Z" transform="translate(-330.027 -154.642)"/></g><g transform="translate(56.049)"><path class="c" d="M409.273,152.917c-1.93-6.25-6.605-15.158-17.737-17.013L378.378,257.366s24.7-4.932,25.365-18.471c.057-1.17,5-61.537,6.235-76.485A24.508,24.508,0,0,0,409.273,152.917Z" transform="translate(-378.378 -135.904)"/></g><g class="d" transform="translate(0 21.721)"><path class="e" d="M418.067,154.642l-7.363,90.3s-21.491,38.617-80.677,40.087l7.315-90.917S388.972,192.017,418.067,154.642Z" transform="translate(-330.027 -154.642)"/></g><g transform="translate(15.213 44.742)"><path class="c" d="M414.213,174.5a53.542,53.542,0,0,0-9.431,29.2c-.06,2.994.116,6.1-1.024,8.869s-4.115,5.084-7,4.293c-3.019-.828-4.368-4.4-7.014-6.068a7.821,7.821,0,0,0-7.941.168,13.3,13.3,0,0,0-5.215,6.343c-2.153,4.951-2.293,10.535-3.878,15.7s-5.473,10.362-10.866,10.6c-1.968.086-3.917-.511-5.888-.452-4.166.124-7.781,3.219-9.723,6.908s-2.526,7.917-3.078,12.049c0,0,31.55,3.006,66.971-38.816Z" transform="translate(-343.151 -174.501)"/></g><g transform="translate(33.639 97.489)"><path class="c" d="M361.522,222.032c0,1.121-.555,2.029-1.238,2.029s-1.238-.908-1.238-2.029S359.6,220,360.284,220,361.522,220.912,361.522,222.032Z" transform="translate(-359.046 -220.003)"/></g><g transform="translate(48.5 59.945)"><path class="c" d="M374.342,189.645c0,1.12-.554,2.029-1.238,2.029s-1.238-.909-1.238-2.029.554-2.029,1.238-2.029S374.342,188.525,374.342,189.645Z" transform="translate(-371.866 -187.616)"/></g><g transform="translate(16.544 49.099)"><path class="c" d="M413.321,178.26a2.793,2.793,0,0,1-.2.515l-.667,1.463-2.6,5.516c-2.294,4.777-5.533,11.525-9.408,19.6l-.128.265-.25-.158-22.319-14.122.441-.141c-.293.722-.609,1.5-.926,2.282l-14.414,35.288-.1.24-.226-.126c-5.565-3.131-10.1-5.645-13.261-7.36-1.579-.854-2.811-1.513-3.655-1.942l-.967-.472a1.541,1.541,0,0,1-.337-.15c.039-.114,1.893.679,5.08,2.336s7.769,4.1,13.365,7.186l-.325.115c3.8-9.414,8.809-21.8,14.279-35.342l.927-2.282.137-.335.3.194,22.278,14.188-.377.107,9.6-19.5,2.732-5.452.738-1.428A2.834,2.834,0,0,1,413.321,178.26Z" transform="translate(-344.299 -178.26)"/></g></g></g></g></svg>