<svg xmlns="http://www.w3.org/2000/svg" width="768.74" height="580.436" viewBox="0 0 768.74 580.436"><defs><style>.a{fill:#ebebeb;}.b,.c,.d{fill:#e0e0e0;}.c{font-size:17px;font-family:Bebas-Regular, Bebas;}.d{font-size:18px;font-family:Calculator;}.e{fill:#f5f5f5;}.f,.q{fill:#407bff;}.g,.i,.l,.p,.r,.s,.t{fill:#fff;}.g{opacity:0.1;}.g,.h,.i,.l,.o,.p,.q,.r,.t{isolation:isolate;}.h,.p{opacity:0.2;}.i{opacity:0.7;}.j{fill:#263238;}.k{fill:#ebb376;}.l{opacity:0.6;}.m{fill:#d58745;}.n{fill:none;stroke:#263238;stroke-linecap:round;stroke-linejoin:round;stroke-width:0.557px;}.o{opacity:0.4;}.r{opacity:0.3;}.t{opacity:0.5;}</style></defs><g transform="translate(0 -54.953)"><g transform="translate(0 54.953)"><rect class="a" width="768.74" height="0.384" transform="translate(0 503.441)"/><rect class="a" width="50.925" height="0.384" transform="translate(640.789 528.188)"/><rect class="a" width="13.366" height="0.384" transform="translate(495.878 532.36)"/><rect class="a" width="29.508" height="0.384" transform="translate(609.742 513.911)"/><rect class="a" width="66.409" height="0.384" transform="translate(80.655 516.494)"/><rect class="a" width="9.737" height="0.384" transform="translate(160.752 516.494)"/><rect class="a" width="144.025" height="0.384" transform="translate(202.134 522.985)"/><path class="a" d="M343.869,489.824H46.983a8.787,8.787,0,0,1-8.776-8.776V63.727a8.785,8.785,0,0,1,8.776-8.774H343.869a8.785,8.785,0,0,1,8.774,8.774V481.048A8.786,8.786,0,0,1,343.869,489.824ZM46.983,55.337a8.4,8.4,0,0,0-8.392,8.39V481.048a8.4,8.4,0,0,0,8.392,8.392H343.869a8.4,8.4,0,0,0,8.39-8.392V63.727a8.4,8.4,0,0,0-8.39-8.39Z" transform="translate(20.535 -54.953)"/><path class="a" d="M560.164,489.824H263.279a8.785,8.785,0,0,1-8.774-8.776V63.727a8.784,8.784,0,0,1,8.774-8.774H560.164a8.786,8.786,0,0,1,8.777,8.774V481.048A8.787,8.787,0,0,1,560.164,489.824ZM263.279,55.337a8.4,8.4,0,0,0-8.39,8.39V481.048a8.4,8.4,0,0,0,8.39,8.392H560.164a8.4,8.4,0,0,0,8.393-8.392V63.727a8.4,8.4,0,0,0-8.393-8.39Z" transform="translate(136.791 -54.953)"/><g transform="translate(67.52 11.926)"><g transform="translate(572.31)"><path class="b" d="M457.71,86.788v-6.6l-3.4-.32a17.654,17.654,0,0,0-2.535-6.1l2.183-2.637-4.668-4.669-2.638,2.183a17.657,17.657,0,0,0-6.1-2.534l-.321-3.4h-6.6l-.32,3.4a17.652,17.652,0,0,0-6.1,2.534l-2.637-2.183-4.669,4.669,2.185,2.637a17.625,17.625,0,0,0-2.535,6.1l-3.4.32v6.6l3.4.321a17.661,17.661,0,0,0,2.537,6.1l-2.185,2.638,4.669,4.668,2.637-2.183a17.626,17.626,0,0,0,6.1,2.535l.32,3.4h6.6l.321-3.4a17.66,17.66,0,0,0,6.1-2.535l2.638,2.183,4.668-4.668-2.183-2.638a17.659,17.659,0,0,0,2.535-6.1Zm-20.777,5.638a8.938,8.938,0,1,1,8.937-8.939A8.939,8.939,0,0,1,436.933,92.426Z" transform="translate(-416.155 -62.71)"/><path class="b" d="M471.97,97.089V91.914l-2.663-.251a13.836,13.836,0,0,0-1.986-4.778l1.711-2.066-3.659-3.659-2.066,1.711a13.835,13.835,0,0,0-4.779-1.986l-.251-2.664H453.1l-.251,2.664a13.836,13.836,0,0,0-4.779,1.986l-2.066-1.711-3.659,3.659,1.711,2.066a13.833,13.833,0,0,0-1.986,4.778l-2.664.251v5.175l2.664.251a13.833,13.833,0,0,0,1.986,4.778l-1.711,2.066,3.659,3.659,2.066-1.711a13.836,13.836,0,0,0,4.779,1.986l.251,2.663h5.175l.251-2.663a13.835,13.835,0,0,0,4.779-1.986l2.066,1.711,3.659-3.659-1.711-2.066a13.836,13.836,0,0,0,1.986-4.778Zm-16.28,4.416a7,7,0,1,1,7-7A7,7,0,0,1,455.69,101.505Z" transform="translate(-403.657 -54.374)"/><path class="b" d="M452.744,105.586V101.24l-2.237-.211a11.6,11.6,0,0,0-1.67-4.013l1.438-1.737L447.2,92.207l-1.736,1.438a11.6,11.6,0,0,0-4.013-1.67l-.211-2.237H436.9l-.211,2.237a11.6,11.6,0,0,0-4.013,1.67l-1.737-1.438-3.072,3.072,1.438,1.737a11.6,11.6,0,0,0-1.67,4.013l-2.237.211v4.346l2.237.211a11.6,11.6,0,0,0,1.67,4.013l-1.438,1.737,3.072,3.072,1.737-1.438a11.575,11.575,0,0,0,4.013,1.67l.211,2.237h4.346l.211-2.237a11.6,11.6,0,0,0,4.013-1.67l1.736,1.438,3.073-3.072-1.438-1.737a11.6,11.6,0,0,0,1.67-4.013ZM439.07,109.3a5.883,5.883,0,1,1,5.882-5.882A5.883,5.883,0,0,1,439.07,109.3Z" transform="translate(-411.189 -48.183)"/></g><g transform="translate(0 155.002)"><path class="b" d="M53.987,485.208,88.348,256.9V485.208h9.225V255.475l34.4,229.733h9.884L98.8,197.643l-1.228.182v-9.351H88.348v9.319l-1.263-.15L43.916,485.208Z" transform="translate(-43.916 -150.117)"/><g transform="translate(1.274)"><path class="a" d="M139.788,242.945H44.744l7.692-79.419H132.1Z" transform="translate(-44.744 -163.526)"/></g></g><text class="c" transform="translate(31.053 22.674)"><tspan x="0" y="0">1011100010101000101010101010101010000000111111001011110101</tspan></text><text class="d" transform="translate(151.666 393.576)"><tspan x="0" y="0">1011100010101000101010101000111110101010000111010100000</tspan></text><text class="c" transform="translate(63.859 79.611)"><tspan x="0" y="0">01010100010101010000000111111001011110101</tspan></text><text class="d" transform="translate(183.46 458.459)"><tspan x="0" y="0">01010100010101010000000111111001011110101</tspan></text><text class="d" transform="translate(281.963 424.122)"><tspan x="0" y="0">01010100010101010000000111111001011110101</tspan></text><text class="c" transform="translate(63.859 108.157)"><tspan x="0" y="0">010101000101010101010101010000000111111001011110101</tspan></text></g></g><g transform="translate(86.27 593.012)"><ellipse class="e" cx="298.101" cy="17.409" rx="298.101" ry="17.409"/></g><g transform="translate(210.635 99.612)"><path class="f" d="M609.006,97.238V406.655c0,7.411-6.488,14.053-13.883,14.053H149.9c-7.4,0-12.9-6.642-12.9-14.053V97.238C137,89.842,142.5,84,149.9,84H595.123C602.518,84,609.006,89.842,609.006,97.238Z" transform="translate(-137 -84)"/><path class="g" d="M609.006,117.69V388.548c0,7.411-6.488,14.053-13.883,14.053H149.9c-7.4,0-12.9-6.642-12.9-14.053V283.123c39.177-75.27,132.558-87.544,241.9-43.5C533.67,301.98,599.671,217.345,609.006,117.69Z" transform="translate(-137 -65.892)"/></g><g transform="translate(327.483 385.528)"><path class="h" d="M446.575,285.448H220.743A7.742,7.742,0,0,1,213,277.707h0a7.743,7.743,0,0,1,7.743-7.743H446.575a7.743,7.743,0,0,1,7.743,7.743h0A7.742,7.742,0,0,1,446.575,285.448Z" transform="translate(-213 -269.964)"/><path class="f" d="M220.205,283.3a6.15,6.15,0,1,1,0-12.3H353.731a6.15,6.15,0,1,1,0,12.3Z" transform="translate(-212.463 -269.407)"/><path class="i" d="M220.205,283.3a6.15,6.15,0,1,1,0-12.3H353.731a6.15,6.15,0,1,1,0,12.3Z" transform="translate(-212.463 -269.407)"/></g><g transform="translate(131.379 341.682)"><g transform="translate(98.447 70.44)"><path class="j" d="M165.547,287.261c14.328,11.514,9.331,66.479,12.022,74.935s14.222,15.4,14.222,15.4L175.7,396.43s-13.451-2.331-23.666-24.24S165.547,287.261,165.547,287.261Z" transform="translate(-149.482 -287.261)"/><path class="h" d="M165.547,287.261c14.328,11.514,9.331,66.479,12.022,74.935s14.222,15.4,14.222,15.4L175.7,396.43s-13.451-2.331-23.666-24.24S165.547,287.261,165.547,287.261Z" transform="translate(-149.482 -287.261)"/></g><g transform="translate(20.462 180.29)"><path class="f" d="M177.589,369.54s102.965-28.734,115.9,7.4-80.545,64.946-132.285,66.71-72.844-34.516-57.588-69Z" transform="translate(-98.759 -358.709)"/><path class="h" d="M177.589,369.54s102.965-28.734,115.9,7.4-80.545,64.946-132.285,66.71-72.844-34.516-57.588-69Z" transform="translate(-98.759 -358.709)"/></g><path class="f" d="M215.84,406.047a.331.331,0,0,1-.38-.02.262.262,0,0,1-.091-.32c.169-.575,1.882-5.55,3.615-6.073a1.077,1.077,0,0,1,1.033.3,1.765,1.765,0,0,1,.615,1.668,4.6,4.6,0,0,1-1.622,2.337A18.728,18.728,0,0,1,215.84,406.047Zm.444-.955a7.4,7.4,0,0,0,3.687-3.552,1.131,1.131,0,0,0-.44-1.139.371.371,0,0,0-.406-.118,1.155,1.155,0,0,0-.4.232A14.421,14.421,0,0,0,216.284,405.093Z" transform="translate(-15.633 -156.439)"/><path class="f" d="M216.49,406.228a.283.283,0,0,1-.323-.094c-.161-.14-2.549-3.153-2.156-5.189a1.92,1.92,0,0,1,.824-1.247,1.11,1.11,0,0,1,1.379-.129c1.25.879,1.1,4.915.484,6.445l-.045.152A.317.317,0,0,1,216.49,406.228Zm-1.358-5.91a1.27,1.27,0,0,0-.415.724c-.248,1.287.952,3.218,1.6,4.143.394-1.722.266-4.552-.467-5.061-.08-.042-.229-.16-.6.1l-.118.094Z" transform="translate(-16.375 -156.556)"/><path class="f" d="M147.666,415.785a.334.334,0,0,1,.28-.258.266.266,0,0,1,.292.16c.294.523,2.648,5.229,1.808,6.831a1.075,1.075,0,0,1-.938.527,1.764,1.764,0,0,1-1.622-.729,4.6,4.6,0,0,1-.535-2.794A18.727,18.727,0,0,1,147.666,415.785Zm.37.986a7.4,7.4,0,0,0-.041,5.118,1.127,1.127,0,0,0,1.121.484.37.37,0,0,0,.369-.208,1.13,1.13,0,0,0,.112-.447A14.387,14.387,0,0,0,148.036,416.77Z" transform="translate(-52.415 -147.884)"/><path class="k" d="M173.057,393.069l-18.221,13.36-8.751,6.415,5.716,9.968,8.88-4.857,21.691-11.862Z" transform="translate(-52.861 -159.952)"/><path class="j" d="M159.677,416.737l-5.5-12.132a1.318,1.318,0,0,0-1.779-.64l-5.927,2.9s-8.252,3.338-9.289,6.018c-3.027,7.837,8.444,34.982,12.025,34.988,1.31,0,2.088-2.029,2.271-3.322.58-4.113.678-14.448,1.205-17.872.613-4,4.66-7.083,6.528-8.309A1.306,1.306,0,0,0,159.677,416.737Z" transform="translate(-57.915 -154.168)"/><path class="f" d="M147.44,415.678a.282.282,0,0,1,.292-.163c.212-.018,4.037.384,5.217,2.089a1.926,1.926,0,0,1,.314,1.462,1.114,1.114,0,0,1-.873,1.076c-1.5.275-4.279-2.657-4.943-4.165l-.077-.138A.319.319,0,0,1,147.44,415.678Zm5.172,3.167a1.271,1.271,0,0,0-.228-.8c-.746-1.078-2.964-1.573-4.079-1.756.955,1.487,3.066,3.376,3.942,3.209.086-.028.275-.052.347-.5l.017-.151Z" transform="translate(-52.171 -147.889)"/><path class="h" d="M170,393.069l-18.221,13.36,5.845,11.526,21.691-11.862Z" transform="translate(-49.802 -159.952)"/><g transform="translate(102.462 238.42)"><path class="f" d="M161.613,416.855l5.993-1.332-9.959-19.005-5.554,5.67Z" transform="translate(-152.093 -396.518)"/><path class="l" d="M161.613,416.855l5.993-1.332-9.959-19.005-5.554,5.67Z" transform="translate(-152.093 -396.518)"/></g><path class="k" d="M188.152,413.546l22.294,3.669,10.706,1.764,3.122-11.059-9.683-2.946-23.652-7.2Z" transform="translate(-30.251 -157.421)"/><path class="j" d="M211.944,408.341l-4.822,12.417a1.316,1.316,0,0,0,.789,1.717l6.221,2.2s8.158,3.561,10.8,2.425c7.717-3.318,19.083-30.508,16.582-33.071-.915-.936-2.91-.072-3.962.7-3.344,2.463-10.8,9.625-13.611,11.645-3.29,2.362-8.321,1.625-10.5,1.15A1.3,1.3,0,0,0,211.944,408.341Z" transform="translate(-20.103 -159.654)"/><path class="h" d="M188.152,413.546l22.294,3.669,4.145-12.241-23.652-7.2Z" transform="translate(-30.251 -157.421)"/><path class="f" d="M256.158,419.566S163.479,364.9,132.116,366.357s-34.107,32.671-21.166,49.977,36.835,21.522,36.835,21.522-16.268-22.993-13.916-29.46,11.317,15.286,11.317,15.286,57.422,7.52,107.444,11.759Z" transform="translate(-75.656 -174.324)"/><g transform="translate(170.213 240.38)"><path class="f" d="M207.914,401.25l-5.144-3.457L196.16,418.1H204.1Z" transform="translate(-196.16 -397.793)"/><path class="l" d="M207.914,401.25l-5.144-3.457L196.16,418.1H204.1Z" transform="translate(-196.16 -397.793)"/></g><path class="j" d="M191.4,420.956c-16.763-32.287-11.43-81.4,3.144-130.284-10.144-8.475-50.635-14.2-81.549-5.212,0,0-19.591,72.591-17.278,151.868Z" transform="translate(-80.034 -220.232)"/><path class="k" d="M142.513,306.056c-13.484,0-22.263-14.145-22.263-14.145,17.681-6.2,17.743-24.861,17.743-24.861l6.811,6.657,9.7,9.5c-8.072,5.719-4.259,10.67-1.691,12.869a11.806,11.806,0,0,0,1.691,1.261S156,306.056,142.513,306.056Z" transform="translate(-66.747 -227.684)"/><path class="h" d="M146.827,293.94c-16.543,1.86-15.421-22.908-15.421-22.908a42.124,42.124,0,0,1,7.411.538l9.7,9.5C140.446,286.79,144.259,291.741,146.827,293.94Z" transform="translate(-60.759 -225.546)"/><g transform="translate(64.452)"><path class="j" d="M151.173,255.844c-6.268,2.594-5.069,9.434,5.326,21.892,6.4-5.51,9.866-18.055,6.51-22.081S156.631,253.6,151.173,255.844Z" transform="translate(-116.635 -235.057)"/><path class="k" d="M168.869,286.4a.119.119,0,0,1-.015.046,43.707,43.707,0,0,1-2,4.889c-6.181,12.592-23.954,15.037-31.826,2.583-.031-.046-.062-.077-.092-.123-5.2-8.379-3.244-16.205-1.076-29.766a18.752,18.752,0,0,1,29.274-12.577C173.451,258.62,172.836,274.825,168.869,286.4Z" transform="translate(-125.083 -237.888)"/><path class="j" d="M145.563,264.348c-.244,1.089.14,2.1.85,2.257s1.473-.589,1.717-1.676-.126-2.1-.83-2.265S145.876,263.293,145.563,264.348Z" transform="translate(-117.633 -230.054)"/><path class="j" d="M153.608,266.162c-.244,1.089.14,2.1.85,2.257s1.488-.581,1.737-1.684-.14-2.1-.85-2.257S153.851,265.075,153.608,266.162Z" transform="translate(-113.309 -229.078)"/><path class="m" d="M151.688,265.311a39.8,39.8,0,0,0,3.116,10.478c-2.369,1.356-5.426-.2-5.426-.2Z" transform="translate(-115.542 -228.619)"/><path class="j" d="M144.1,261.682a.636.636,0,0,1-.386-.18.663.663,0,0,1,.063-.927,6.48,6.48,0,0,1,5.8-1.471.633.633,0,0,1,.454.769l-.014.045a.679.679,0,0,1-.813.441h0a5.165,5.165,0,0,0-4.563,1.208A.679.679,0,0,1,144.1,261.682Z" transform="translate(-118.674 -232.049)"/><path class="j" d="M159.211,265.587a.676.676,0,0,1-.5-.493,5.213,5.213,0,0,0-2.95-3.7.658.658,0,0,1,.437-1.242,6.536,6.536,0,0,1,3.784,4.642.648.648,0,0,1-.477.783l-.009,0A.759.759,0,0,1,159.211,265.587Z" transform="translate(-112.344 -231.41)"/><path class="j" d="M143.141,252.83c5.772,3.545,3.493,10.114-8.747,20.75-5.447-6.459-6.877-19.411-2.909-22.827S138.1,249.745,143.141,252.83Z" transform="translate(-126.375 -237.34)"/><path class="k" d="M127.382,266.8a13.069,13.069,0,0,0,4.351,8.979c3.446,3.006,7.126.4,7.82-3.878.62-3.856-.434-10.07-4.677-11.428S127.151,262.566,127.382,266.8Z" transform="translate(-127.371 -231.381)"/><path class="n" d="M142.526,272.091s1.422,4.886,7.969,6.019" transform="translate(-119.225 -224.975)"/><path class="n" d="M153.445,267a4.66,4.66,0,1,1-4.66-4.66A4.66,4.66,0,0,1,153.445,267Z" transform="translate(-118.366 -230.216)"/><path class="n" d="M161.618,268.677a4.66,4.66,0,1,1-4.66-4.66A4.66,4.66,0,0,1,161.618,268.677Z" transform="translate(-113.973 -229.315)"/><path class="n" d="M150.187,266.29s2.166-1.058,3.246.864" transform="translate(-115.108 -228.249)"/><path class="n" d="M149.733,266.911s-13.362-5.623-15.858-6.181" transform="translate(-123.875 -231.081)"/><path class="j" d="M130.631,255.04s-1.385-10.858,9.7-12.652,25.591.979,30.075-.942c0,0-.6,3.436-3.175,4.719,0,0,8.453,3.116,15.115.426,0,0-2.9,8.007-6.633,11.082h3.181s-6.307,6.022-13.979,6.15-14.9-10.439-22.5-6.886S130.631,255.04,130.631,255.04Z" transform="translate(-125.648 -241.446)"/><path class="o" d="M168.426,278.966a.119.119,0,0,1-.015.046,43.712,43.712,0,0,1-2,4.889c-6.181,12.592-23.954,15.037-31.826,2.583-.031-.046-.062-.077-.092-.123-4.059-7.211-.815-15.083-.815-15.083l2.368-7.672,1.722-1.707s.4,7.8,1.614,9.994,8.133,2.844,9.548,3.229c1.4.384,4.766,4.382,6.427,5.458,1.645,1.076,7.749.185,8.471,1.076S168.426,278.966,168.426,278.966Z" transform="translate(-124.64 -230.452)"/></g><path class="h" d="M110.889,353.5l31.881,35.351s35.25-.784,78.05,20.136c0,0,45.928-18.972,50.146-34.732s-96.412-4.612-96.412-4.612Z" transform="translate(-71.778 -181.219)"/><path class="k" d="M118.9,346.75l51.121,16.72s18.258-4.036,21.525-4.036,15.879,10.257,8.742,13.837-26.615,4.036-28.729,2.883-58.809-14.42-58.809-14.42Z" transform="translate(-70.778 -184.847)"/><g transform="translate(0 65.175)"><path class="j" d="M118.413,283.889c11.568-2.243-8.5,68.232-3.588,78.61s24.129,16.938,24.129,16.938l-8.84,19.514s-26.137-4.934-40.359-23S99.538,287.552,118.413,283.889Z" transform="translate(-85.451 -283.837)"/><path class="h" d="M118.413,283.889c11.568-2.243-8.5,68.232-3.588,78.61s24.129,16.938,24.129,16.938l-8.84,19.514s-26.137-4.934-40.359-23S99.538,287.552,118.413,283.889Z" transform="translate(-85.451 -283.837)"/></g><g transform="translate(42.741 159.212)"><path class="j" d="M124.012,345,113.25,366.078l9.225,1.984,8.456-19.411Z" transform="translate(-113.25 -345)"/><path class="p" d="M124.012,345,113.25,366.078l9.225,1.984,8.456-19.411Z" transform="translate(-113.25 -345)"/></g><g transform="translate(74.644 125.388)"><g transform="translate(0 63.037)"><path class="j" d="M134,364v3.352a4.351,4.351,0,0,0,4.156,4.336h123.6a4.632,4.632,0,0,0,4.469-4.336V364Z" transform="translate(-134 -364)"/><path class="p" d="M134,364v3.352a4.351,4.351,0,0,0,4.156,4.336h123.6a4.632,4.632,0,0,0,4.469-4.336V364Z" transform="translate(-134 -364)"/><path class="p" d="M164,364v3.352a4.375,4.375,0,0,0,4.171,4.336h77.458a4.632,4.632,0,0,0,4.469-4.336V364Z" transform="translate(-117.876 -364)"/></g><g transform="translate(46.948)"><path class="j" d="M167.883,390.649h81.656a6.657,6.657,0,0,0,5.935-4.382L274.2,327.528c.769-2.414-.63-4.528-3.136-4.528H189.408a6.8,6.8,0,0,0-5.935,4.528L164.747,386.2A3.2,3.2,0,0,0,167.883,390.649Z" transform="translate(-164.536 -323)"/><path class="p" d="M167.883,390.649h81.656a6.657,6.657,0,0,0,5.935-4.382L274.2,327.528c.769-2.414-.63-4.528-3.136-4.528H189.408a6.8,6.8,0,0,0-5.935,4.528L164.747,386.2A3.2,3.2,0,0,0,167.883,390.649Z" transform="translate(-164.536 -323)"/><path class="p" d="M169.883,390.649h78.581a6.657,6.657,0,0,0,5.935-4.382l18.726-58.739c.769-2.414-.63-4.528-3.136-4.528H191.408a6.8,6.8,0,0,0-5.935,4.528L166.747,386.2A3.194,3.194,0,0,0,169.883,390.649Z" transform="translate(-163.461 -323)"/></g><path class="p" d="M209.273,340.81l-11.305,8.006,4.888,8.006,11.305-8.006Z" transform="translate(-99.619 -313.428)"/></g></g><g transform="translate(255.403 100.224)"><rect class="h" width="130.276" height="130.276" rx="8.743" transform="translate(0 14.301)"/><rect class="q" width="109.161" height="109.161" rx="7.326" transform="translate(36.534)"/><g transform="translate(36.534)"><rect class="r" width="109.161" height="109.161" rx="7.326"/><g transform="translate(21.435 17.905)"><path class="s" d="M245.377,120.122v-6.6l-3.4-.32a17.62,17.62,0,0,0-2.537-6.1l2.185-2.638L236.956,99.8l-2.637,2.183a17.625,17.625,0,0,0-6.1-2.535l-.32-3.4h-6.6l-.321,3.4a17.63,17.63,0,0,0-6.1,2.535L212.241,99.8l-4.668,4.668,2.183,2.638a17.647,17.647,0,0,0-2.535,6.1l-3.4.32v6.6l3.4.32a17.667,17.667,0,0,0,2.535,6.1l-2.183,2.637,4.668,4.669,2.638-2.185a17.63,17.63,0,0,0,6.1,2.535l.321,3.4h6.6l.32-3.4a17.625,17.625,0,0,0,6.1-2.535l2.637,2.185,4.669-4.669-2.185-2.637a17.64,17.64,0,0,0,2.537-6.1ZM224.6,125.759a8.938,8.938,0,1,1,8.937-8.937A8.937,8.937,0,0,1,224.6,125.759Z" transform="translate(-203.822 -96.044)"/><path class="s" d="M259.637,130.422v-5.174L256.973,125a13.784,13.784,0,0,0-1.986-4.78l1.711-2.066-3.658-3.658-2.068,1.711a13.8,13.8,0,0,0-4.778-1.988l-.251-2.663h-5.174l-.251,2.663a13.8,13.8,0,0,0-4.778,1.988l-2.068-1.711-3.658,3.658,1.711,2.066a13.843,13.843,0,0,0-1.986,4.78l-2.664.251v5.174l2.664.251a13.824,13.824,0,0,0,1.986,4.778l-1.711,2.068,3.658,3.658,2.068-1.711a13.823,13.823,0,0,0,4.778,1.986l.251,2.664h5.174l.251-2.664a13.843,13.843,0,0,0,4.78-1.986l2.066,1.711,3.658-3.658-1.711-2.068a13.765,13.765,0,0,0,1.986-4.778Zm-16.28,4.417a7,7,0,1,1,7-7A7.005,7.005,0,0,1,243.357,134.839Z" transform="translate(-191.324 -87.708)"/><path class="s" d="M240.411,138.919v-4.345l-2.239-.211a11.6,11.6,0,0,0-1.668-4.014l1.438-1.736-3.073-3.073-1.736,1.438a11.6,11.6,0,0,0-4.014-1.668l-.211-2.239h-4.345l-.211,2.239a11.609,11.609,0,0,0-4.014,1.668L218.6,125.54l-3.073,3.073,1.438,1.736a11.6,11.6,0,0,0-1.668,4.014l-2.237.211v4.345l2.237.211a11.6,11.6,0,0,0,1.668,4.014l-1.438,1.736,3.073,3.073,1.736-1.438a11.61,11.61,0,0,0,4.014,1.668l.211,2.237h4.345l.211-2.237a11.6,11.6,0,0,0,4.014-1.668l1.736,1.438,3.073-3.073-1.438-1.736a11.6,11.6,0,0,0,1.668-4.014Zm-13.676,3.71a5.882,5.882,0,1,1,5.882-5.882A5.882,5.882,0,0,1,226.735,142.629Z" transform="translate(-198.856 -81.518)"/></g></g><rect class="p" width="109.161" height="109.161" rx="7.326" transform="translate(41.149)"/></g><g transform="translate(452.019 234.53)"><rect class="h" width="120.431" height="120.431" rx="8.082" transform="translate(0 6.444)"/><rect class="q" width="100.912" height="100.912" rx="6.772" transform="translate(30.251)"/><g transform="translate(30.251)"><rect class="p" width="100.912" height="100.912" rx="6.772"/><g transform="translate(14.176 30.315)"><path class="s" d="M351.542,216.382a3.642,3.642,0,1,1-3.642-3.642A3.643,3.643,0,0,1,351.542,216.382Z" transform="translate(-311.415 -180.038)"/><path class="s" d="M359.073,191.47A36.172,36.172,0,0,0,322.9,227.647h28.892c0-4.612,3.261-7.134,7.285-7.134a7.657,7.657,0,0,1,2.174.418l13.545-15.724-9.565,18.6a6.849,6.849,0,0,1,1.13,3.838h28.894A36.173,36.173,0,0,0,359.073,191.47Z" transform="translate(-322.896 -191.47)"/></g></g><rect class="p" width="100.912" height="100.912" rx="6.772" transform="translate(34.517)"/></g><g transform="translate(494.612 135.403)"><rect class="h" width="105.666" height="105.666" rx="7.091" transform="translate(0 9.311)"/><rect class="q" width="88.54" height="88.54" rx="5.942" transform="translate(28.333)"/><g transform="translate(28.333)"><rect class="g" width="88.54" height="88.54" rx="5.942"/><g transform="translate(19.785 19.559)"><path class="s" d="M402.2,122.909A2.909,2.909,0,0,0,399.29,120H355.909A2.909,2.909,0,0,0,353,122.909v9.557a2.909,2.909,0,0,0,2.909,2.909H399.29a2.909,2.909,0,0,0,2.909-2.909Zm-14.322,5.175h-2.494V125.59h2.494Zm6.65,1.247a2.494,2.494,0,1,1,2.5-2.494A2.494,2.494,0,0,1,394.527,129.331Z" transform="translate(-353 -120)"/><path class="s" d="M402.2,133.91A2.909,2.909,0,0,0,399.29,131H355.909A2.909,2.909,0,0,0,353,133.91v9.554a2.909,2.909,0,0,0,2.909,2.91H399.29a2.909,2.909,0,0,0,2.909-2.91Zm-14.322,6.136h-2.494v-2.5h2.494Zm6.65,1.247a2.495,2.495,0,1,1,2.5-2.494A2.5,2.5,0,0,1,394.527,141.293Z" transform="translate(-353 -114.088)"/><path class="s" d="M402.2,144.909A2.909,2.909,0,0,0,399.29,142H355.909A2.909,2.909,0,0,0,353,144.909v9.557a2.909,2.909,0,0,0,2.909,2.909H399.29a2.909,2.909,0,0,0,2.909-2.909Zm-14.322,7.1h-2.494v-2.494h2.494Zm6.65,1.247a2.494,2.494,0,1,1,2.5-2.494A2.494,2.494,0,0,1,394.527,153.254Z" transform="translate(-353 -108.175)"/></g></g><rect class="p" width="88.54" height="88.54" rx="5.942" transform="translate(32.077)"/></g><g transform="translate(322.274 217.333)"><rect class="h" width="130.276" height="130.276" rx="8.743" transform="translate(0 9.219)"/><rect class="q" width="109.161" height="109.161" rx="7.326" transform="translate(30.564)"/><g transform="translate(30.564)"><rect class="t" width="109.161" height="109.161" rx="7.326"/><g transform="translate(21.749 22.081)"><g transform="translate(0.133 2.314)"><path class="s" d="M246.221,227.229h0a8.532,8.532,0,0,1,0-12.063l19.909-19.909a4.814,4.814,0,0,1,6.806,0l5.258,5.258a4.812,4.812,0,0,1,0,6.8l-19.909,19.909A8.531,8.531,0,0,1,246.221,227.229Z" transform="translate(-243.724 -167.074)"/><path class="s" d="M270.574,203.822l-3.912-3.912,22.5-22.5,4.893-.98-.98,4.892Z" transform="translate(-231.395 -176.434)"/><path class="s" d="M270.358,201.009l-6.928-6.928a1.584,1.584,0,0,1,0-2.242h0a1.584,1.584,0,0,1,2.242,0l6.928,6.928a1.587,1.587,0,0,1,0,2.242h0A1.584,1.584,0,0,1,270.358,201.009Z" transform="translate(-233.381 -168.403)"/></g><path class="s" d="M271.421,196.581l-9.489-9.514c1.776-4.752-1.8-10.6-5.695-12.138l-.077,7.325a3.135,3.135,0,0,1-3.113,3.1,3.077,3.077,0,0,1-3.106-3.046l.011-7.257c-3.077,1.195-6.308,4.7-6.314,8.848a9.408,9.408,0,0,0,8.209,9.169,8.156,8.156,0,0,0,4.58-.64l9.559,9.585Z" transform="translate(-243.637 -174.929)"/><path class="s" d="M289.75,219.644l-.014,7.26c3.077-1.195,6.305-4.692,6.311-8.845a9.434,9.434,0,0,0-8-9.372,7.373,7.373,0,0,0-4.377.438l-9.937-9.963-5.436,5.435,9.866,9.894c-2.864,5.836,1.6,10.8,5.49,12.341l-.025-7.222a3.063,3.063,0,1,1,6.125.034Z" transform="translate(-230.385 -161.904)"/></g></g><rect class="p" width="109.161" height="109.161" rx="7.326" transform="translate(35.179)"/></g><g transform="translate(383.855 65.995)"><rect class="q" width="131.58" height="131.58" rx="8.83" transform="translate(161.94 131.58) rotate(180)"/><rect class="h" width="157.03" height="157.03" rx="10.538" transform="translate(0 20.903)"/><g transform="translate(30.36)"><rect class="t" width="131.58" height="131.58" rx="8.83" transform="translate(131.58 131.58) rotate(180)"/><path class="s" d="M326.275,78.407,285.967,94.222s5.1,55.351,40.308,65.729c35.211-10.378,40.308-65.729,40.308-65.729ZM325.247,132a2.806,2.806,0,0,1-2.214,1.129H323a2.786,2.786,0,0,1-2.222-1.173l-14.131-19.472a2.783,2.783,0,0,1,4.5-3.276l11.929,16.425,19.512-25.74a2.78,2.78,0,0,1,3.894-.535,2.981,2.981,0,0,1,.535,4.061Z" transform="translate(-260.514 -53.389)"/></g><rect class="p" width="131.58" height="131.58" rx="8.83" transform="translate(167.503 131.58) rotate(180)"/></g><g transform="translate(534.745 408.534)"><rect class="f" width="131.067" height="88.45"/><rect class="i" width="131.067" height="88.45"/><rect class="j" width="125.87" height="78.684" transform="translate(2.434 6.821)"/><g transform="translate(8.2 19.009)"><rect class="b" width="103.487" height="2.306"/><rect class="b" width="88.102" height="2.306" transform="translate(0 6.534)"/><rect class="b" width="103.487" height="2.306" transform="translate(0 13.069)"/><rect class="b" width="88.102" height="2.306" transform="translate(0 19.603)"/><rect class="b" width="11.18" height="2.306" transform="translate(0 26.137)"/><rect class="b" width="57.333" height="2.306" transform="translate(0 32.671)"/><rect class="b" width="88.102" height="2.306" transform="translate(0 39.206)"/><rect class="b" width="11.18" height="2.306" transform="translate(0 45.74)"/><rect class="b" width="11.18" height="2.306" transform="translate(0 52.274)"/></g></g><g transform="translate(156.795 224.51)"><rect class="f" width="131.067" height="88.45"/><rect class="i" width="131.067" height="88.45"/><rect class="j" width="125.87" height="78.684" transform="translate(2.434 6.821)"/><g transform="translate(8.2 19.009)"><rect class="b" width="103.487" height="2.306"/><rect class="b" width="88.102" height="2.306" transform="translate(0 6.534)"/><rect class="b" width="103.487" height="2.306" transform="translate(0 13.069)"/><rect class="b" width="88.102" height="2.306" transform="translate(0 19.603)"/><rect class="b" width="11.18" height="2.306" transform="translate(0 26.137)"/><rect class="b" width="57.334" height="2.306" transform="translate(0 32.671)"/><rect class="b" width="88.102" height="2.306" transform="translate(0 39.206)"/><rect class="b" width="11.18" height="2.306" transform="translate(0 45.74)"/><rect class="b" width="11.18" height="2.306" transform="translate(0 52.274)"/></g></g></g></svg>