<svg xmlns="http://www.w3.org/2000/svg" width="18.586" height="18.586" viewBox="0 0 18.586 18.586"><defs><style>.a{fill:#eb692a;fill-rule:evenodd;}</style></defs><path class="a" d="M9.293,1.652a28.494,28.494,0,0,1,3.717.1,4.789,4.789,0,0,1,1.755.31A3.626,3.626,0,0,1,16.521,3.82a4.789,4.789,0,0,1,.31,1.755c0,.929.1,1.239.1,3.717a28.494,28.494,0,0,1-.1,3.717,4.789,4.789,0,0,1-.31,1.755,3.626,3.626,0,0,1-1.755,1.755,4.789,4.789,0,0,1-1.755.31c-.929,0-1.239.1-3.717.1a28.494,28.494,0,0,1-3.717-.1,4.789,4.789,0,0,1-1.755-.31,3.626,3.626,0,0,1-1.755-1.755,4.789,4.789,0,0,1-.31-1.755c0-.929-.1-1.239-.1-3.717a28.494,28.494,0,0,1,.1-3.717,4.789,4.789,0,0,1,.31-1.755,3.708,3.708,0,0,1,.723-1.033A1.746,1.746,0,0,1,3.82,2.065a4.789,4.789,0,0,1,1.755-.31,28.494,28.494,0,0,1,3.717-.1M9.293,0a30.509,30.509,0,0,0-3.82.1A6.375,6.375,0,0,0,3.2.516,4.042,4.042,0,0,0,1.549,1.549,4.042,4.042,0,0,0,.516,3.2,4.7,4.7,0,0,0,.1,5.473,30.509,30.509,0,0,0,0,9.293a30.509,30.509,0,0,0,.1,3.82,6.375,6.375,0,0,0,.413,2.272,4.042,4.042,0,0,0,1.033,1.652A4.042,4.042,0,0,0,3.2,18.07a6.375,6.375,0,0,0,2.272.413,30.509,30.509,0,0,0,3.82.1,30.509,30.509,0,0,0,3.82-.1,6.375,6.375,0,0,0,2.272-.413,4.332,4.332,0,0,0,2.685-2.685,6.375,6.375,0,0,0,.413-2.272c0-1.033.1-1.342.1-3.82a30.509,30.509,0,0,0-.1-3.82A6.375,6.375,0,0,0,18.07,3.2a4.042,4.042,0,0,0-1.033-1.652A4.042,4.042,0,0,0,15.385.516,6.375,6.375,0,0,0,13.113.1,30.509,30.509,0,0,0,9.293,0m0,4.543a4.673,4.673,0,0,0-4.75,4.75,4.75,4.75,0,1,0,4.75-4.75m0,7.847a3.042,3.042,0,0,1-3.1-3.1,3.042,3.042,0,0,1,3.1-3.1,3.042,3.042,0,0,1,3.1,3.1,3.042,3.042,0,0,1-3.1,3.1M14.249,3.2a1.136,1.136,0,1,0,1.136,1.136A1.146,1.146,0,0,0,14.249,3.2"/></svg>