<svg xmlns="http://www.w3.org/2000/svg" width="133.429" height="43" viewBox="0 0 133.429 43"><defs><style>.a{fill:#6a6a6a;font-size:14px;font-family:HelveticaNeue-Medium, Helvetica Neue;font-weight:500;}.b{fill:#22549e;}.c{fill:#49abe3;}.d{fill:#3d9b3d;}.e{fill:#1a1818;}.f{fill:#eb692a;}.g{fill:#e1421a;}.h{fill:none;stroke:#ddd;}</style></defs><g transform="translate(-327.571 -7149)"><text class="a" transform="translate(405 7163)"><tspan x="0" y="0">Riby</tspan><tspan x="0" y="13">Digital</tspan><tspan x="0" y="26">Services</tspan></text><g transform="translate(5710.996 9889.342)"><g transform="translate(-5383.425 -2736.189)"><path class="b" d="M-5236.045-2341.691a2.807,2.807,0,0,1-.2,1.05,2.426,2.426,0,0,1-.562.849,2.9,2.9,0,0,1-.838.562,2.473,2.473,0,0,1-1.024.212,2.807,2.807,0,0,1-1.087-.212,2.913,2.913,0,0,1-.886-.562,2.6,2.6,0,0,1-.6-.849,2.536,2.536,0,0,1-.225-1.05v-8.07a12.022,12.022,0,0,1,.987-4.847,12.717,12.717,0,0,1,2.686-3.973,12.743,12.743,0,0,1,3.972-2.686,11.983,11.983,0,0,1,4.822-.987h.05a2.77,2.77,0,0,1,2.087.762,2.672,2.672,0,0,1,.737,1.936,2.579,2.579,0,0,1-.226,1.074,2.669,2.669,0,0,1-.612.862,2.962,2.962,0,0,1-.9.575,2.807,2.807,0,0,1-1.087.212h-.05a6.825,6.825,0,0,0-2.71.55,7.023,7.023,0,0,0-2.236,1.5,7.412,7.412,0,0,0-1.524,2.224,6.553,6.553,0,0,0-.575,2.723Z" transform="translate(5241.466 2373.26)"/><path class="c" d="M-4925.188-2522.565a11.592,11.592,0,0,1-.974,4.584,12.1,12.1,0,0,1-2.561,3.76,12.176,12.176,0,0,1-3.773,2.536,11.466,11.466,0,0,1-4.609.937,11.534,11.534,0,0,1-4.635-.937,11.965,11.965,0,0,1-3.772-2.561,12.179,12.179,0,0,1-2.548-3.8,11.561,11.561,0,0,1-.937-4.622,11.624,11.624,0,0,1,.937-4.647,12.037,12.037,0,0,1,2.548-3.785,12.072,12.072,0,0,1,3.772-2.548,11.526,11.526,0,0,1,4.635-.937,11.44,11.44,0,0,1,3.436.512,12.393,12.393,0,0,1,3.06,1.436v-7.795a3.019,3.019,0,0,1,.2-1.112,2.8,2.8,0,0,1,.562-.9,2.545,2.545,0,0,1,.85-.6,2.7,2.7,0,0,1,1.087-.213,2.72,2.72,0,0,1,1.074.213,2.514,2.514,0,0,1,.862.6,2.983,2.983,0,0,1,.575.9,2.881,2.881,0,0,1,.212,1.112Zm-5.422-.1a6.332,6.332,0,0,0-.512-2.536,6.466,6.466,0,0,0-1.4-2.062,6.762,6.762,0,0,0-2.061-1.386,6.247,6.247,0,0,0-2.523-.512,6.246,6.246,0,0,0-2.523.512,6.738,6.738,0,0,0-2.061,1.386,6.286,6.286,0,0,0-1.387,2.062,6.46,6.46,0,0,0-.5,2.536,6.4,6.4,0,0,0,.5,2.511,6.521,6.521,0,0,0,1.374,2.074,6.442,6.442,0,0,0,2.061,1.4,6.333,6.333,0,0,0,2.536.512,6.242,6.242,0,0,0,2.523-.512,6.635,6.635,0,0,0,2.061-1.4,6.6,6.6,0,0,0,1.4-2.074A6.271,6.271,0,0,0-4930.61-2522.665Z" transform="translate(4963.491 2545.29)"/><path class="d" d="M-4444.852-2369.971q-1.075-.45-2.224-1a10.082,10.082,0,0,1-2.1-1.337,6.647,6.647,0,0,1-1.562-1.874,5.237,5.237,0,0,1-.612-2.611,6.463,6.463,0,0,1,.625-2.861,6.464,6.464,0,0,1,1.736-2.2,7.894,7.894,0,0,1,2.636-1.4,10.948,10.948,0,0,1,3.348-.487,15.218,15.218,0,0,1,2.174.162,11.013,11.013,0,0,1,2.136.525,7.07,7.07,0,0,1,1.811.949,4.033,4.033,0,0,1,1.224,1.412,2.755,2.755,0,0,1,.262,1.586,2.37,2.37,0,0,1-.562,1.287,2.566,2.566,0,0,1-.812.625,2.226,2.226,0,0,1-.986.225,2.267,2.267,0,0,1-.875-.2q-.525-.325-.962-.575a6.285,6.285,0,0,0-.9-.425,5.266,5.266,0,0,0-.974-.262,7.008,7.008,0,0,0-1.162-.087,5.468,5.468,0,0,0-2.461.437,1.42,1.42,0,0,0-.837,1.336,1.063,1.063,0,0,0,.313.787,2.931,2.931,0,0,0,.85.562,9.421,9.421,0,0,0,1.3.475q.762.225,1.661.5a23.864,23.864,0,0,1,2.811,1.05,9.726,9.726,0,0,1,2.349,1.461,6.63,6.63,0,0,1,1.611,2.024,6,6,0,0,1,.6,2.786,6.349,6.349,0,0,1-.637,2.811,7.116,7.116,0,0,1-1.761,2.286,8.422,8.422,0,0,1-2.673,1.536,9.9,9.9,0,0,1-3.4.562,15.007,15.007,0,0,1-2.436-.212,10.994,10.994,0,0,1-2.5-.724,9.592,9.592,0,0,1-2.236-1.324,6.161,6.161,0,0,1-1.648-2.011,3.238,3.238,0,0,1-.45-1.536,2.432,2.432,0,0,1,.313-1.249,2.168,2.168,0,0,1,.875-.837,2.584,2.584,0,0,1,1.237-.3,3.322,3.322,0,0,1,1.249.262,4.574,4.574,0,0,1,1.3.837,4.136,4.136,0,0,0,.75.712,5.89,5.89,0,0,0,1,.6,5.872,5.872,0,0,0,1.187.412,5.813,5.813,0,0,0,1.337.15,4.812,4.812,0,0,0,1.174-.137,3.648,3.648,0,0,0,.974-.387,2.142,2.142,0,0,0,.675-.6,1.344,1.344,0,0,0,.25-.8,1.237,1.237,0,0,0-.55-.962,6.987,6.987,0,0,0-1.336-.812,14.585,14.585,0,0,0-1.649-.662Z" transform="translate(4491.284 2393.68)"/><g transform="translate(52.892 0)"><path class="e" d="M-4159.675-2525.335l-5.522,7.556-3.439,4.7.017-5.817-5.467-1.774,5.476-1.78,8.32-2.7Z" transform="translate(4174.087 2528.261)"/><path class="e" d="M-4159.675-2525.335l-5.522,7.556-3.439,4.7.017-5.817-5.467-1.774,5.476-1.78,8.32-2.7Z" transform="translate(4174.087 2528.261)"/><path class="f" d="M-4159.675-2525.335l-5.522,7.556-3.439,4.7.017-5.817-5.467-1.774,5.476-1.78,8.32-2.7Z" transform="translate(4174.087 2528.261)"/><path class="g" d="M-3972.363-2414.25l-4.677-1.52,1.855-2.535Z" transform="translate(3986.804 2426.534)"/><path class="g" d="M-4060.552-2580.458l-2.973.966.015-4.893Z" transform="translate(4069.004 2584.385)"/></g></g></g><path class="h" d="M400,7151.3v36.278" transform="translate(0 1.199)"/></g></svg>