<svg xmlns="http://www.w3.org/2000/svg" width="192.682" height="185.331" viewBox="0 0 192.682 185.331"><defs><style>.a,.d{opacity:0.2;}.a,.b,.d{isolation:isolate;}.b{fill:#e1421a;}.c,.d{fill:#fff;}</style></defs><g transform="translate(-166.118 -84.398)"><rect class="a" width="167" height="167" rx="8.743" transform="translate(166.118 102.73)"/><rect class="b" width="139.933" height="139.933" rx="7.326" transform="translate(212.95 84.398)"/><g transform="translate(212.95 84.398)"><g transform="translate(27.478 22.953)"><path class="c" d="M257.091,126.91v-8.465l-4.358-.41a22.587,22.587,0,0,0-3.252-7.817l2.8-3.382-5.986-5.984-3.38,2.8a22.594,22.594,0,0,0-7.819-3.25l-.41-4.358h-8.463l-.412,4.358a22.6,22.6,0,0,0-7.817,3.25l-3.382-2.8-5.984,5.984,2.8,3.382a22.621,22.621,0,0,0-3.25,7.817l-4.358.41v8.465l4.358.41a22.647,22.647,0,0,0,3.25,7.819l-2.8,3.38,5.984,5.986L218,141.7a22.6,22.6,0,0,0,7.817,3.25l.412,4.358h8.463l.41-4.358a22.594,22.594,0,0,0,7.819-3.25l3.38,2.8,5.986-5.986-2.8-3.38a22.613,22.613,0,0,0,3.252-7.819Zm-26.635,7.225a11.458,11.458,0,1,1,11.457-11.457A11.457,11.457,0,0,1,230.457,134.135Z" transform="translate(-203.822 -96.044)"/><path class="c" d="M268.816,135.741v-6.632l-3.416-.321a17.67,17.67,0,0,0-2.546-6.127l2.194-2.649-4.689-4.689-2.651,2.194a17.685,17.685,0,0,0-6.126-2.548l-.321-3.414H244.63l-.321,3.414a17.685,17.685,0,0,0-6.126,2.548l-2.651-2.194-4.689,4.689,2.194,2.649a17.745,17.745,0,0,0-2.546,6.127l-3.416.321v6.632l3.416.321a17.72,17.72,0,0,0,2.546,6.126l-2.194,2.651,4.689,4.689,2.651-2.194a17.719,17.719,0,0,0,6.126,2.546l.321,3.416h6.632l.321-3.416a17.745,17.745,0,0,0,6.128-2.546l2.649,2.194,4.689-4.689-2.194-2.651a17.645,17.645,0,0,0,2.546-6.126Zm-20.87,5.662a8.978,8.978,0,1,1,8.977-8.979A8.98,8.98,0,0,1,247.947,141.4Z" transform="translate(-181.246 -80.986)"/><path class="c" d="M248.121,143.387v-5.57l-2.87-.27a14.866,14.866,0,0,0-2.138-5.146l1.843-2.225-3.94-3.94-2.225,1.843a14.866,14.866,0,0,0-5.146-2.138l-.27-2.87h-5.57l-.27,2.87a14.882,14.882,0,0,0-5.146,2.138l-2.225-1.843-3.94,3.94,1.843,2.225a14.866,14.866,0,0,0-2.138,5.146l-2.868.27v5.57l2.868.27a14.866,14.866,0,0,0,2.138,5.146l-1.843,2.225,3.94,3.94,2.225-1.843a14.883,14.883,0,0,0,5.146,2.138l.27,2.868h5.57l.27-2.868a14.867,14.867,0,0,0,5.146-2.138l2.225,1.843,3.94-3.94-1.843-2.225a14.866,14.866,0,0,0,2.138-5.146Zm-17.531,4.756a7.541,7.541,0,1,1,7.541-7.541A7.541,7.541,0,0,1,230.59,148.143Z" transform="translate(-194.852 -69.804)"/></g></g><rect class="d" width="139.933" height="139.933" rx="7.326" transform="translate(218.867 84.398)"/></g></svg>