<svg xmlns="http://www.w3.org/2000/svg" width="167.503" height="177.933" viewBox="0 0 167.503 177.933"><defs><style>.a,.d{opacity:0.2;}.a,.b,.d{isolation:isolate;}.b{fill:#3d9b3d;}.c,.d{fill:#fff;}</style></defs><g transform="translate(0 0)"><rect class="a" width="157.03" height="157.03" rx="10.538" transform="translate(0 20.903)"/><rect class="b" width="131.58" height="131.58" rx="8.83" transform="translate(161.94 131.58) rotate(180)"/><g transform="translate(30.36)"><path class="c" d="M326.275,78.407,285.967,94.222s5.1,55.351,40.308,65.729c35.211-10.378,40.308-65.729,40.308-65.729ZM325.247,132a2.806,2.806,0,0,1-2.214,1.129H323a2.786,2.786,0,0,1-2.222-1.173l-14.131-19.472a2.783,2.783,0,0,1,4.5-3.276l11.929,16.425,19.512-25.74a2.78,2.78,0,0,1,3.894-.535,2.981,2.981,0,0,1,.535,4.061Z" transform="translate(-260.514 -53.389)"/></g><rect class="d" width="131.58" height="131.58" rx="8.83" transform="translate(167.503 131.58) rotate(180)"/></g></svg>