<svg xmlns="http://www.w3.org/2000/svg" width="144.34" height="139.495" viewBox="0 0 144.34 139.495"><defs><style>.a,.d{opacity:0.2;}.a,.b,.d{isolation:isolate;}.b{fill:#49abe3;}.c,.d{fill:#fff;}</style></defs><rect class="a" width="130.276" height="130.276" rx="8.743" transform="translate(0 9.219)"/><rect class="b" width="109.161" height="109.161" rx="7.326" transform="translate(30.564)"/><g transform="translate(30.564)"><g transform="translate(21.749 22.081)"><g transform="translate(0.133 2.314)"><path class="c" d="M246.221,227.229h0a8.532,8.532,0,0,1,0-12.063l19.909-19.909a4.814,4.814,0,0,1,6.806,0l5.258,5.258a4.812,4.812,0,0,1,0,6.8l-19.909,19.909A8.531,8.531,0,0,1,246.221,227.229Z" transform="translate(-243.724 -167.074)"/><path class="c" d="M270.574,203.822l-3.912-3.912,22.5-22.5,4.893-.98-.98,4.892Z" transform="translate(-231.395 -176.434)"/><path class="c" d="M270.358,201.009l-6.928-6.928a1.584,1.584,0,0,1,0-2.242h0a1.584,1.584,0,0,1,2.242,0l6.928,6.928a1.587,1.587,0,0,1,0,2.242h0A1.584,1.584,0,0,1,270.358,201.009Z" transform="translate(-233.381 -168.403)"/></g><path class="c" d="M271.421,196.581l-9.489-9.514c1.776-4.752-1.8-10.6-5.695-12.138l-.077,7.325a3.135,3.135,0,0,1-3.113,3.1,3.077,3.077,0,0,1-3.106-3.046l.011-7.257c-3.077,1.195-6.308,4.7-6.314,8.848a9.408,9.408,0,0,0,8.209,9.169,8.156,8.156,0,0,0,4.58-.64l9.559,9.585Z" transform="translate(-243.637 -174.929)"/><path class="c" d="M289.75,219.644l-.014,7.26c3.077-1.195,6.305-4.692,6.311-8.845a9.434,9.434,0,0,0-8-9.372,7.373,7.373,0,0,0-4.377.438l-9.937-9.963-5.436,5.435,9.866,9.894c-2.864,5.836,1.6,10.8,5.49,12.341l-.025-7.222a3.063,3.063,0,1,1,6.125.034Z" transform="translate(-230.385 -161.904)"/></g></g><rect class="d" width="109.161" height="109.161" rx="7.326" transform="translate(35.179)"/></svg>