<svg xmlns="http://www.w3.org/2000/svg" width="18.586" height="15.075" viewBox="0 0 18.586 15.075"><defs><style>.a{fill:#49abe3;fill-rule:evenodd;}</style></defs><path class="a" d="M43.886,17.075A10.745,10.745,0,0,0,54.727,6.233V5.717a8.393,8.393,0,0,0,1.859-1.962,8.572,8.572,0,0,1-2.168.62A4.017,4.017,0,0,0,56.07,2.31a9.471,9.471,0,0,1-2.375.929A3.688,3.688,0,0,0,50.907,2a3.879,3.879,0,0,0-3.82,3.82,2.013,2.013,0,0,0,.1.826A10.675,10.675,0,0,1,39.342,2.62a3.954,3.954,0,0,0-.516,1.962,4.1,4.1,0,0,0,1.652,3.2,3.481,3.481,0,0,1-1.755-.516h0a3.774,3.774,0,0,0,3.1,3.717,3.183,3.183,0,0,1-1.033.1,1.757,1.757,0,0,1-.723-.1,3.912,3.912,0,0,0,3.614,2.685,7.8,7.8,0,0,1-4.75,1.652,2.859,2.859,0,0,1-.929-.1,9.746,9.746,0,0,0,5.886,1.859" transform="translate(-38 -2)"/></svg>